<?xml version="1.0" encoding="UTF-8" standalone="no"?>
<svg width="242px" height="67px" viewBox="0 0 242 67" version="1.1" xmlns="http://www.w3.org/2000/svg" xmlns:xlink="http://www.w3.org/1999/xlink" xmlns:sketch="http://www.bohemiancoding.com/sketch/ns">
    <!-- Generator: bin/sketchtool 1.4 (305) - http://www.bohemiancoding.com/sketch -->
    <title>Imported Layers Copy 3</title>
    <desc>Created with bin/sketchtool.</desc>
    <defs></defs>
    <g id="01---Home" stroke="none" stroke-width="1" fill="none" fill-rule="evenodd" sketch:type="MSPage">
        <g id="01.--Home---desktop" sketch:type="MSArtboardGroup" transform="translate(-247.000000, -264.000000)">
            <g id="Imported-Layers-+-header-+-Imported-Layers-Copy-3" sketch:type="MSLayerGroup" transform="translate(241.000000, 263.000000)">
                <g id="Imported-Layers-Copy-3" transform="translate(6.000000, 0.000000)">
                    <path d="M32.6534036,30.8777042 C32.6534036,30.8777042 18.9853914,36.8128244 18.609446,29.3819259 C18.2814937,22.8818893 30.4457247,25.2675357 30.4457247,25.2675357 C30.4457247,25.2675357 37.9596319,25.9694317 40.9661947,23.1638475 C40.9661947,23.1638475 46.0394568,20.3602631 44.4896822,14.5631224 C42.9399076,8.76698152 30.3517383,9.51487066 25.4664488,11.2456141 C20.5821591,12.9753577 11.6104639,16.7158033 9.26280533,28.1201129 C6.91514675,39.5234227 17.3556284,48.2471296 21.6160088,48.7790507 C33.6032655,53.1194074 42.1560216,45.9384718 48.0041711,40.9302141 C48.2401368,41.0182011 47.8291966,44.0857464 44.3017096,46.814342 C40.0303308,50.1228516 34.7091046,53.5823388 22.5548722,54.1092607 C22.2699137,54.120259 9.96670296,54.8091569 2.78074802,45.694508 C-2.33950733,38.4025888 1.04300075,31.6715865 1.74689838,29.8478568 C1.74689838,29.8478568 6.16225624,15.8729282 22.9778107,8.72098833 C22.9778107,8.72098833 38.1026111,2.26994454 48.01217,9.23391231 C53.3183983,13.7672404 47.5892315,20.1252979 47.5892315,20.1252979 C47.5892315,20.1252979 42.7989281,26.1104108 32.6534036,30.8777042" id="Fill-1" sketch:type="MSShapeGroup"></path>
                    <path d="M32.6534036,30.8777042 C32.6534036,30.8777042 18.9853914,36.8128244 18.609446,29.3819259 C18.2814937,22.8818893 30.4457247,25.2675357 30.4457247,25.2675357 C30.4457247,25.2675357 37.9596319,25.9694317 40.9661947,23.1638475 C40.9661947,23.1638475 46.0394568,20.3602631 44.4896822,14.5631224 C42.9399076,8.76698152 30.3517383,9.51487066 25.4664488,11.2456141 C20.5821591,12.9753577 11.6104639,16.7158033 9.26280533,28.1201129 C6.91514675,39.5234227 17.3556284,48.2471296 21.6160088,48.7790507 C33.6032655,53.1194074 42.1560216,45.9384718 48.0041711,40.9302141 C48.2401368,41.0182011 47.8291966,44.0857464 44.3017096,46.814342 C40.0303308,50.1228516 34.7091046,53.5823388 22.5548722,54.1092607 C22.2699137,54.120259 9.96670296,54.8091569 2.78074802,45.694508 C-2.33950733,38.4025888 1.04300075,31.6715865 1.74689838,29.8478568 C1.74689838,29.8478568 6.16225624,15.8729282 22.9778107,8.72098833 C22.9778107,8.72098833 38.1026111,2.26994454 48.01217,9.23391231 C53.3183983,13.7672404 47.5892315,20.1252979 47.5892315,20.1252979 C47.5892315,20.1252979 42.7989281,26.1104108 32.6534036,30.8777042" id="Stroke-2" sketch:type="MSShapeGroup"></path>
                    <path d="M131.02871,28.2026684 C131.46214,30.904138 138.923326,31.744973 137.17163,27.8257424 C136.124008,25.4792031 130.553336,25.1782622 131.02871,28.2026684" id="Fill-3" sketch:type="MSShapeGroup"></path>
                    <path d="M131.02871,28.2026684 C131.46214,30.904138 138.923326,31.744973 137.17163,27.8257424 C136.124008,25.4792031 130.553336,25.1782622 131.02871,28.2026684" id="Stroke-4" sketch:type="MSShapeGroup"></path>
                    <path d="M242.554928,45.1965915 C242.484932,45.136608 242.414935,45.0766245 242.32494,45.0266383 C242.32494,45.0266383 241.764969,44.5567675 239.905066,44.6767345 C239.905066,44.6767345 239.07511,44.7567125 238.095161,45.2265833 C238.095161,45.2265833 237.885172,45.3265558 237.595187,45.4665173 C237.585188,45.4565201 237.585188,45.4565201 237.575188,45.4665173 C237.065215,45.7064514 236.355252,46.0363606 236.155262,46.1163387 C236.155262,46.1163387 236.105265,46.1463304 236.00527,46.1863194 C235.455299,46.4262534 233.475403,47.0660775 231.785491,45.05663 C231.785491,45.05663 231.635499,44.816696 231.485507,44.3868142 C231.22552,43.6570148 230.955534,42.3473749 231.42551,40.7078257 C231.42551,40.7078257 231.875486,38.7883535 232.425457,37.9785761 L236.885224,37.298763 C236.885224,37.298763 236.655236,37.0288372 236.145263,36.6189499 C234.765335,35.5292495 231.335514,33.4998075 224.835854,33.3898378 C224.835854,33.3898378 218.706174,33.0599285 213.486447,36.4589939 C213.486447,36.4589939 210.246617,38.4674417 208.796692,42.0074684 C208.796692,42.0074684 207.826743,44.5167784 202.047045,46.9561078 C202.047045,46.9561078 201.687064,46.9761023 201.917052,46.4962342 C201.917052,46.4962342 202.067044,46.2762947 202.287033,45.9463854 C202.687012,45.3465503 203.29698,44.3668197 203.536967,43.6670121 C203.536967,43.6670121 204.476918,41.6075783 203.29698,39.8980484 C203.226984,39.8080731 203.156987,39.7081006 203.076991,39.6181253 C203.076991,39.6181253 201.587069,37.0788235 192.937521,35.8991478 C192.937521,35.8991478 190.757635,35.6392193 189.917679,33.9596811 C189.917679,33.9596811 189.947678,33.9296893 189.997675,33.8697058 C190.317658,33.4898103 191.447599,32.0202143 190.787634,30.7705579 C190.787634,30.7705579 190.737636,30.6705854 190.597644,30.5706129 C190.267661,30.3106844 189.447704,30.0007696 187.667797,30.7705579 C187.667797,30.7705579 186.247871,31.3603957 185.747897,32.4500961 C185.747897,32.4500961 185.197926,33.3498488 185.407915,35.2893155 C185.407915,35.2893155 185.597905,36.5089802 185.957886,37.2087878 C185.957886,37.2087878 184.177979,39.3382023 181.168136,40.7378175 C181.168136,40.7378175 178.558273,42.0874464 178.23829,42.1174381 C178.23829,42.1174381 177.338337,42.4473474 177.238342,41.3376525 C177.198344,41.077724 177.219343,40.7378175 177.298339,40.2979384 C177.298339,40.2979384 178.018301,37.4387245 176.628374,35.1293595 C175.948409,34.0196646 174.78847,33.039934 172.828572,32.5700632 C172.828572,32.5700632 169.308756,31.650316 168.4788,33.7597361 C168.4788,33.7597361 168.368805,33.9996701 168.128818,33.7397416 C168.128818,33.7397416 167.928828,33.399835 167.478852,33.319857 C167.478852,33.319857 166.448906,32.9699532 163.039084,34.0996426 C163.039084,34.0996426 161.149183,34.7294694 160.009242,35.429277 C160.009242,35.429277 158.919299,35.9681289 157.439377,37.5586916 C157.439377,37.5586916 156.569422,38.5584167 155.969454,39.5581418 C155.969454,39.5581418 155.489479,40.4378999 155.249491,40.957757 C155.249491,40.957757 152.039659,44.965655 148.75983,45.4965091 C148.479845,45.5364981 145.909979,46.1163387 144.93003,43.5770368 C144.93003,43.5770368 144.93003,43.5670396 144.920031,43.5470451 C144.830036,43.2871165 144.221068,41.2676718 145.390006,37.5886833 C145.390006,37.5886833 154.099551,32.6200494 154.479531,32.3601209 C154.479531,32.3601209 160.349225,28.6111516 162.259125,22.5628146 C162.259125,22.5628146 162.7391,20.5833589 161.709154,19.0737739 C161.369171,18.5739113 160.869197,18.124035 160.139236,17.8141203 C160.139236,17.8141203 157.37938,16.1145875 153.309593,19.1137629 C153.309593,19.1137629 147.23991,23.332603 142.65015,32.8099972 C142.65015,32.8099972 140.590257,37.2787685 140.000288,39.408183 C140.000288,39.408183 135.050547,45.5265008 131.630726,45.9063964 C131.630726,45.9063964 130.070807,46.3462754 129.550834,44.616751 C129.280848,43.7369928 129.290848,42.2673969 129.930814,39.8680566 C129.930814,39.8680566 133.740615,36.6489417 132.590675,35.30931 C132.590675,35.30931 132.530679,35.2393293 132.440683,35.1193622 C132.030705,34.6294969 130.930762,33.3698433 130.110805,33.039934 C130.110805,33.039934 126.201009,36.1690736 124.821082,41.6275728 C124.821082,41.6275728 116.951493,47.0160913 115.071591,46.2563002 C115.021594,46.2563002 113.961649,46.2463029 113.621667,44.9966465 C113.551671,44.7567125 113.511673,44.4657925 113.511673,44.1168884 C113.511673,44.1168884 113.441676,38.9982957 119.381366,36.5689637 C119.381366,36.5689637 119.141378,36.5589664 118.451414,36.0790984 C117.861445,35.6792083 116.931494,34.9294145 115.541567,33.5397965 C115.541567,33.5397965 113.071696,32.9399615 109.501882,34.2296069 C109.501882,34.2296069 107.182003,35.1993402 103.682186,35.2793183 L103.682186,34.8294419 C103.682186,34.8294419 103.762182,34.7184725 103.892175,34.5195272 C104.422148,33.7097498 105.71208,31.5003573 105.052115,29.8208191 C105.052115,29.8208191 104.972119,29.7308438 104.822127,29.620874 C104.582139,29.4409235 104.142162,29.2009895 103.572192,29.260973 C103.572192,29.260973 100.93233,29.620874 100.102373,32.6600384 C100.102373,32.6600384 99.652397,33.9496838 100.472354,36.2790434 C100.472354,36.2790434 96.552559,45.1266108 89.3529353,45.3165586 C89.3529353,45.3165586 86.7130733,45.2965641 86.3130942,43.5370478 C86.2130994,43.1571523 86.2330984,42.6972787 86.39309,42.1474299 C86.39309,42.1474299 86.9430613,41.1077158 87.8930116,41.3076608 C87.8930116,41.3076608 88.1229996,41.3376525 88.3429881,41.5375976 C88.5529771,41.6975536 88.7429672,41.9974711 88.7429672,42.5173282 L88.7429672,42.5273254 C88.7429672,42.787254 88.7029693,43.0971688 88.5829756,43.4770643 C88.5829756,43.4770643 88.612974,43.6670121 89.0829494,43.2971138 C89.0829494,43.2971138 90.7628616,41.7875288 90.5728715,40.5478697 C90.5728715,40.5478697 90.5528726,40.1879686 90.1928914,39.7680841 L90.1928914,39.7580868 C89.8929071,39.408183 89.3329364,39.0282875 88.3629871,38.7883535 C88.3629871,38.7883535 88.5329782,38.6283974 88.8329625,38.3284799 C91.2228376,35.9391368 101.942277,24.8721797 100.092374,20.073499 C100.092374,20.073499 99.9823797,19.753587 99.7123939,19.3237052 C99.7123939,19.3237052 99.7123939,19.3137079 99.7023944,19.2937134 C99.0724273,18.2340048 97.6025041,16.5244748 94.9326437,17.1243099 C94.9326437,17.1243099 88.0730022,19.8135705 83.9032201,31.330404 C83.9032201,31.330404 80.9633738,40.3679192 80.673389,42.9572072 C80.673389,42.9572072 77.6235484,46.1163387 75.1336785,46.2363057 C75.1336785,46.2363057 73.363771,46.646193 72.2838275,44.0768994 C72.253829,44.0069186 72.2238306,43.9369379 72.1938322,43.8669571 C72.1938322,43.8669571 71.2338823,41.5475948 73.133783,37.4287273 L76.8535886,37.298763 C76.8535886,37.298763 76.7635933,36.9988455 76.4036121,36.5589664 C75.5036592,35.4392743 72.9137945,33.399835 65.9141604,32.9699532 C65.9141604,32.9699532 59.9444724,32.4301016 54.9347342,34.989398 C54.9347342,34.989398 51.4749151,36.2290571 48.9350478,39.8380648 C48.9350478,39.8380648 48.7250588,40.2279576 48.5050703,40.917768 C48.3850766,41.277669 48.2650828,41.7175481 48.1750875,42.2274079 C48.1450891,42.3773667 48.1250901,42.5373227 48.1050912,42.707276 C48.0250954,43.2171358 47.9850975,43.7769819 48.0050964,44.3768169 C48.0050964,44.7267207 48.0350948,45.0866218 48.0750928,45.4565201 C48.0750928,45.4665173 48.0750928,45.7564376 48.2350844,46.1863194 L48.2350844,46.1963167 C48.5850661,47.1560528 49.715007,48.795602 53.2848205,49.4754151 C53.2848205,49.4754151 58.1745649,50.8750303 66.7041191,46.0063689 C66.7141186,45.9963716 66.724118,45.9963716 66.7341175,45.9863744 C66.7341175,45.9863744 66.7641159,46.0663524 66.8241128,46.2163112 C66.8241128,46.2163112 66.8241128,46.2163112 66.8341123,46.2263084 C67.2940882,47.3260061 69.633966,51.6848076 76.0936283,47.9158439 C76.0936283,47.9158439 78.0035285,46.8261435 79.2934611,45.8864019 C79.543448,45.7064514 79.7634365,45.5364981 79.9534266,45.3765421 C79.9534266,45.3765421 79.2034658,49.6053794 77.0735771,52.654541 C77.0735771,52.654541 75.3436675,55.4627689 74.7436989,55.9236422 C74.7436989,55.9236422 71.0338928,60.3424272 67.83406,62.0219655 C67.83406,62.0219655 65.5841776,63.5515449 64.6442267,63.3216081 C64.6442267,63.3216081 63.5542837,63.6415202 60.8844233,59.8925509 C60.8844233,59.8925509 60.2044588,58.8328423 60.0944645,58.6129028 C60.0944645,58.6129028 59.6344886,57.5631914 58.6845382,57.3232574 C58.6845382,57.3232574 57.7645863,57.0233398 56.3646595,57.5931831 C56.3646595,57.5931831 55.474706,57.9030979 55.6246982,58.9328148 C55.6246982,58.9328148 55.6246982,59.0227901 55.6746956,59.2027406 C55.6746956,59.2117381 55.6746956,59.2227351 55.684695,59.2227351 C55.8046888,59.6126279 56.1946684,60.3824162 57.3846062,61.3921386 C57.3846062,61.3921386 59.2645079,62.9817016 60.7444306,63.6115284 C60.7444306,63.6115284 61.7643773,64.1613772 63.0943078,64.511281 C63.0943078,64.511281 64.96421,64.9711546 66.7041191,64.9411628 C66.7041191,64.9411628 71.2638808,65.3510501 75.4636613,61.3721441 C75.4636613,61.3721441 80.5633947,57.1433068 82.9632693,49.7653354 C82.9632693,49.7653354 84.5731851,45.1166135 84.8731695,44.3068362 C84.8831689,44.2768444 84.8931684,44.2568499 84.9031679,44.2368554 C85.1231564,43.6970038 85.2631491,47.5359483 91.692813,46.3762672 C91.692813,46.3762672 97.1725266,45.8963991 101.712289,37.9185926 C101.712289,37.9185926 103.532194,39.2782188 108.071957,38.4284524 C108.071957,38.4284524 110.981805,37.4287273 114.011646,37.138807 C114.351629,37.098818 114.691611,37.0688262 115.031593,37.058829 L115.071591,37.058829 L115.271581,37.5087053 C115.271581,37.5087053 110.611824,39.1982408 108.711923,42.3073859 C108.711923,42.3073859 106.622033,45.1865943 107.781972,47.6259236 L107.791972,47.6359209 C107.791972,47.6459181 107.801971,47.6559154 107.801971,47.6659126 C107.801971,47.6659126 108.711923,50.6850825 112.901705,49.7253464 C112.901705,49.7253464 114.061644,49.5353986 116.351524,48.4057092 C116.351524,48.4057092 122.37121,44.9966465 122.75119,44.7667097 C122.75119,44.7667097 123.681141,44.1868692 124.321108,43.8169709 C124.431102,43.7569874 124.541096,43.6970038 124.631091,43.6470176 C124.631091,43.6470176 124.741086,46.1563277 125.271058,47.6359209 C125.271058,47.6459181 125.281057,47.6559154 125.291057,47.6659126 C125.381052,47.9158439 125.481047,48.1357834 125.601041,48.3057367 C125.601041,48.3057367 126.410998,49.8253189 128.030914,49.9052969 C128.030914,49.9052969 129.380843,50.1852199 132.270692,48.5356735 C132.270692,48.5356735 135.230537,46.846138 139.300325,42.9172182 C139.39032,42.8372402 139.490315,42.747265 139.58031,42.6572897 C139.58031,42.6572897 139.620308,44.6467427 140.490263,46.6361957 C140.490263,46.646193 140.500262,46.6561902 140.500262,46.6661875 C140.900241,47.5559428 141.471211,48.4456982 142.280169,49.155503 C142.280169,49.155503 144.130072,51.064978 147.99987,49.3554481 C147.99987,49.3554481 151.899666,47.6059291 154.679521,43.9669296 C154.739518,43.8969489 154.799515,43.8269681 154.849512,43.7569874 C154.849512,43.7569874 154.919508,44.4767894 155.339486,45.4265283 L155.339486,45.4365256 C155.959454,46.8261435 157.349381,48.7056267 160.43922,49.5154041 C160.43922,49.5154041 165.97893,51.0149918 171.228656,48.7456157 C171.228656,48.7456157 175.148451,47.0360858 176.548378,43.5470451 C176.558377,43.5270506 176.568377,43.4970588 176.568377,43.4770643 L177.708317,43.2071385 L178.828259,42.9372127 C178.828259,42.9372127 177.618322,43.9269406 177.978303,45.2065888 C177.978303,45.2465778 177.998302,45.2965641 178.008302,45.3365531 C178.008302,45.3365531 178.568272,47.2360308 182.218082,48.4456982 C182.218082,48.4456982 183.458017,49.075525 187.677796,49.7143494 C187.677796,49.7143494 190.377655,50.0952447 193.597487,49.9952722 C193.597487,49.9952722 197.207298,49.8253189 200.577122,48.8155965 C200.577122,48.8155965 205.036889,47.6859071 208.696698,44.4967839 C208.736696,44.4657925 208.786693,44.4268032 208.826691,44.3868142 C208.826691,44.3868142 208.896687,44.856685 209.166673,45.4865118 C209.456658,46.1763222 209.976631,47.0560803 210.866584,47.7258961 C210.866584,47.7258961 215.176359,51.6348214 222.145995,48.8855773 C222.145995,48.8855773 224.185888,48.1757724 226.205783,46.8761298 C226.205783,46.8761298 227.165732,49.1754976 229.205626,49.7953271 C229.205626,49.7953271 230.865539,50.4451485 233.215416,49.2354811 C233.215416,49.2354811 234.785334,48.3357284 235.735284,47.4649679 C235.735284,47.4649679 236.725233,46.5762122 237.285203,46.3962617 C237.285203,46.3962617 238.335149,46.0163661 238.955116,46.1463304 C238.955116,46.1463304 239.435091,46.0863469 240.765022,46.8561353 C240.765022,46.8561353 241.494983,47.1860445 242.144949,47.0260885 C242.144949,47.0260885 242.654923,46.9161188 242.89491,46.3562727 C242.89491,46.3562727 243.114899,45.6864569 242.554928,45.1965915 L242.554928,45.1965915 Z M64.2742461,44.736718 C64.2742461,44.736718 58.9045267,47.5859346 55.6346976,43.7769819 C55.6346976,43.7769819 53.5948043,41.8675069 55.5247034,37.2787685 C55.5247034,37.2787685 57.0746224,34.1796206 61.4143956,34.1696234 C61.4143956,34.1696234 65.5541792,33.9686786 66.6641212,36.818895 L71.0538917,36.7689087 C71.0538917,36.7689087 69.5039727,41.6675618 64.2742461,44.736718 L64.2742461,44.736718 Z M92.3227801,22.9027212 C92.3227801,22.9027212 93.3227278,21.303161 94.4026714,21.6730592 C94.4026714,21.6730592 95.8225972,21.8030235 95.672605,23.7124985 C95.672605,23.7124985 95.5226128,24.4722896 95.2026296,25.3720422 C94.7426536,26.6716849 93.9826933,27.9913221 93.2527315,29.2109867 C92.1227905,31.1104645 90.7628616,32.8899752 89.0929489,34.5595162 L85.6631282,37.8286173 C85.5531339,37.9885734 85.4531391,37.9685789 85.3831428,37.9785761 C85.3831428,37.9785761 86.9730597,29.5508933 92.3227801,22.9027212 L92.3227801,22.9027212 Z M156.059449,23.7624848 C156.309436,24.4323006 156.329435,25.202089 156.149444,25.8519103 C155.989452,26.4017591 155.679469,27.0315859 155.0795,27.6914045 C153.059606,29.9307888 150.699729,31.7902776 147.759883,32.9799505 C149.389797,29.7308438 154.159548,21.1731967 156.049449,23.7424903 C156.049449,23.7524875 156.049449,23.7524875 156.059449,23.7624848 L156.059449,23.7624848 Z M168.698788,38.2485019 C168.708788,38.2584991 168.708788,38.2784936 168.718787,38.2884909 C168.718787,38.2984881 168.728787,38.2984881 168.728787,38.3084854 C168.728787,38.3184826 168.738786,38.3184826 168.738786,38.3284799 C168.738786,38.3284799 168.738786,38.3384772 168.748786,38.3384772 C169.678737,40.3879137 171.458644,42.1274354 172.3086,42.867232 C171.878622,44.0169159 169.948723,47.6659126 163.229074,45.3165586 C163.229074,45.3165586 160.889196,44.3168334 159.599264,42.1774216 C159.589264,42.1674244 159.579265,42.1674244 159.579265,42.1574271 C159.399274,41.7175481 159.269281,41.23768 159.199285,40.7168232 C159.199285,40.7168232 158.579317,38.0885459 162.35912,36.3190324 C164.089029,35.4892605 166.36891,36.4489967 167.788836,35.229332 C167.798835,35.7991753 167.908829,36.3590214 168.09882,36.9088702 C168.248812,37.3587465 168.458801,37.7986256 168.688789,38.2175104 C168.688789,38.2285074 168.698788,38.2385046 168.698788,38.2485019 L168.698788,38.2485019 Z M201.137093,43.3970863 L201.137093,43.4070836 C201.337082,44.2068637 201.037098,45.2765695 200.077148,46.7761572 C195.977362,47.8758549 192.897523,47.2150366 192.897523,47.2150366 C186.777843,46.3762672 184.437966,43.5970313 184.437966,43.5970313 C183.508014,42.587309 182.63806,42.0874464 181.988094,41.8275179 C183.188031,41.1377075 185.357917,39.7580868 186.727846,38.1885184 C190.927626,42.1374326 199.137197,41.0577295 201.127093,43.3870891 L201.137093,43.3970863 L201.137093,43.3970863 Z M227.095736,37.5087053 C227.145733,37.6586641 227.165732,37.7386421 227.165732,37.7386421 L227.225729,37.7286448 C227.466717,38.1685239 227.535713,38.4784387 227.535713,38.4784387 L230.405563,38.1485294 C229.995584,39.5581418 229.205626,40.6078532 229.205626,40.6078532 C227.185731,43.8369654 223.855905,44.8866767 223.855905,44.8866767 C218.776171,46.5462205 216.206305,43.027188 216.206305,43.027188 C216.046314,42.8172457 215.906321,42.6073035 215.786327,42.3973612 C214.786379,39.9580319 216.10631,38.1185376 216.10631,38.1185376 C217.936215,35.1793457 221.776014,35.0593787 221.776014,35.0593787 C224.955848,35.0193897 226.425771,36.4290022 227.075737,37.458719 L227.075737,37.4677166 C227.085737,37.4887108 227.085737,37.498708 227.095736,37.5087053 L227.095736,37.5087053 Z" id="Fill-5" sketch:type="MSShapeGroup"></path>
                    <path d="M242.554928,45.1965915 C242.484932,45.136608 242.414935,45.0766245 242.32494,45.0266383 C242.32494,45.0266383 241.764969,44.5567675 239.905066,44.6767345 C239.905066,44.6767345 239.07511,44.7567125 238.095161,45.2265833 C238.095161,45.2265833 237.885172,45.3265558 237.595187,45.4665173 C237.585188,45.4565201 237.585188,45.4565201 237.575188,45.4665173 C237.065215,45.7064514 236.355252,46.0363606 236.155262,46.1163387 C236.155262,46.1163387 236.105265,46.1463304 236.00527,46.1863194 C235.455299,46.4262534 233.475403,47.0660775 231.785491,45.05663 C231.785491,45.05663 231.635499,44.816696 231.485507,44.3868142 C231.22552,43.6570148 230.955534,42.3473749 231.42551,40.7078257 C231.42551,40.7078257 231.875486,38.7883535 232.425457,37.9785761 L236.885224,37.298763 C236.885224,37.298763 236.655236,37.0288372 236.145263,36.6189499 C234.765335,35.5292495 231.335514,33.4998075 224.835854,33.3898378 C224.835854,33.3898378 218.706174,33.0599285 213.486447,36.4589939 C213.486447,36.4589939 210.246617,38.4674417 208.796692,42.0074684 C208.796692,42.0074684 207.826743,44.5167784 202.047045,46.9561078 C202.047045,46.9561078 201.687064,46.9761023 201.917052,46.4962342 C201.917052,46.4962342 202.067044,46.2762947 202.287033,45.9463854 C202.687012,45.3465503 203.29698,44.3668197 203.536967,43.6670121 C203.536967,43.6670121 204.476918,41.6075783 203.29698,39.8980484 C203.226984,39.8080731 203.156987,39.7081006 203.076991,39.6181253 C203.076991,39.6181253 201.587069,37.0788235 192.937521,35.8991478 C192.937521,35.8991478 190.757635,35.6392193 189.917679,33.9596811 C189.917679,33.9596811 189.947678,33.9296893 189.997675,33.8697058 C190.317658,33.4898103 191.447599,32.0202143 190.787634,30.7705579 C190.787634,30.7705579 190.737636,30.6705854 190.597644,30.5706129 C190.267661,30.3106844 189.447704,30.0007696 187.667797,30.7705579 C187.667797,30.7705579 186.247871,31.3603957 185.747897,32.4500961 C185.747897,32.4500961 185.197926,33.3498488 185.407915,35.2893155 C185.407915,35.2893155 185.597905,36.5089802 185.957886,37.2087878 C185.957886,37.2087878 184.177979,39.3382023 181.168136,40.7378175 C181.168136,40.7378175 178.558273,42.0874464 178.23829,42.1174381 C178.23829,42.1174381 177.338337,42.4473474 177.238342,41.3376525 C177.198344,41.077724 177.219343,40.7378175 177.298339,40.2979384 C177.298339,40.2979384 178.018301,37.4387245 176.628374,35.1293595 C175.948409,34.0196646 174.78847,33.039934 172.828572,32.5700632 C172.828572,32.5700632 169.308756,31.650316 168.4788,33.7597361 C168.4788,33.7597361 168.368805,33.9996701 168.128818,33.7397416 C168.128818,33.7397416 167.928828,33.399835 167.478852,33.319857 C167.478852,33.319857 166.448906,32.9699532 163.039084,34.0996426 C163.039084,34.0996426 161.149183,34.7294694 160.009242,35.429277 C160.009242,35.429277 158.919299,35.9681289 157.439377,37.5586916 C157.439377,37.5586916 156.569422,38.5584167 155.969454,39.5581418 C155.969454,39.5581418 155.489479,40.4378999 155.249491,40.957757 C155.249491,40.957757 152.039659,44.965655 148.75983,45.4965091 C148.479845,45.5364981 145.909979,46.1163387 144.93003,43.5770368 C144.93003,43.5770368 144.93003,43.5670396 144.920031,43.5470451 C144.830036,43.2871165 144.221068,41.2676718 145.390006,37.5886833 C145.390006,37.5886833 154.099551,32.6200494 154.479531,32.3601209 C154.479531,32.3601209 160.349225,28.6111516 162.259125,22.5628146 C162.259125,22.5628146 162.7391,20.5833589 161.709154,19.0737739 C161.369171,18.5739113 160.869197,18.124035 160.139236,17.8141203 C160.139236,17.8141203 157.37938,16.1145875 153.309593,19.1137629 C153.309593,19.1137629 147.23991,23.332603 142.65015,32.8099972 C142.65015,32.8099972 140.590257,37.2787685 140.000288,39.408183 C140.000288,39.408183 135.050547,45.5265008 131.630726,45.9063964 C131.630726,45.9063964 130.070807,46.3462754 129.550834,44.616751 C129.280848,43.7369928 129.290848,42.2673969 129.930814,39.8680566 C129.930814,39.8680566 133.740615,36.6489417 132.590675,35.30931 C132.590675,35.30931 132.530679,35.2393293 132.440683,35.1193622 C132.030705,34.6294969 130.930762,33.3698433 130.110805,33.039934 C130.110805,33.039934 126.201009,36.1690736 124.821082,41.6275728 C124.821082,41.6275728 116.951493,47.0160913 115.071591,46.2563002 C115.021594,46.2563002 113.961649,46.2463029 113.621667,44.9966465 C113.551671,44.7567125 113.511673,44.4657925 113.511673,44.1168884 C113.511673,44.1168884 113.441676,38.9982957 119.381366,36.5689637 C119.381366,36.5689637 119.141378,36.5589664 118.451414,36.0790984 C117.861445,35.6792083 116.931494,34.9294145 115.541567,33.5397965 C115.541567,33.5397965 113.071696,32.9399615 109.501882,34.2296069 C109.501882,34.2296069 107.182003,35.1993402 103.682186,35.2793183 L103.682186,34.8294419 C103.682186,34.8294419 103.762182,34.7184725 103.892175,34.5195272 C104.422148,33.7097498 105.71208,31.5003573 105.052115,29.8208191 C105.052115,29.8208191 104.972119,29.7308438 104.822127,29.620874 C104.582139,29.4409235 104.142162,29.2009895 103.572192,29.260973 C103.572192,29.260973 100.93233,29.620874 100.102373,32.6600384 C100.102373,32.6600384 99.652397,33.9496838 100.472354,36.2790434 C100.472354,36.2790434 96.552559,45.1266108 89.3529353,45.3165586 C89.3529353,45.3165586 86.7130733,45.2965641 86.3130942,43.5370478 C86.2130994,43.1571523 86.2330984,42.6972787 86.39309,42.1474299 C86.39309,42.1474299 86.9430613,41.1077158 87.8930116,41.3076608 C87.8930116,41.3076608 88.1229996,41.3376525 88.3429881,41.5375976 C88.5529771,41.6975536 88.7429672,41.9974711 88.7429672,42.5173282 L88.7429672,42.5273254 C88.7429672,42.787254 88.7029693,43.0971688 88.5829756,43.4770643 C88.5829756,43.4770643 88.612974,43.6670121 89.0829494,43.2971138 C89.0829494,43.2971138 90.7628616,41.7875288 90.5728715,40.5478697 C90.5728715,40.5478697 90.5528726,40.1879686 90.1928914,39.7680841 L90.1928914,39.7580868 C89.8929071,39.408183 89.3329364,39.0282875 88.3629871,38.7883535 C88.3629871,38.7883535 88.5329782,38.6283974 88.8329625,38.3284799 C91.2228376,35.9391368 101.942277,24.8721797 100.092374,20.073499 C100.092374,20.073499 99.9823797,19.753587 99.7123939,19.3237052 C99.7123939,19.3237052 99.7123939,19.3137079 99.7023944,19.2937134 C99.0724273,18.2340048 97.6025041,16.5244748 94.9326437,17.1243099 C94.9326437,17.1243099 88.0730022,19.8135705 83.9032201,31.330404 C83.9032201,31.330404 80.9633738,40.3679192 80.673389,42.9572072 C80.673389,42.9572072 77.6235484,46.1163387 75.1336785,46.2363057 C75.1336785,46.2363057 73.363771,46.646193 72.2838275,44.0768994 C72.253829,44.0069186 72.2238306,43.9369379 72.1938322,43.8669571 C72.1938322,43.8669571 71.2338823,41.5475948 73.133783,37.4287273 L76.8535886,37.298763 C76.8535886,37.298763 76.7635933,36.9988455 76.4036121,36.5589664 C75.5036592,35.4392743 72.9137945,33.399835 65.9141604,32.9699532 C65.9141604,32.9699532 59.9444724,32.4301016 54.9347342,34.989398 C54.9347342,34.989398 51.4749151,36.2290571 48.9350478,39.8380648 C48.9350478,39.8380648 48.7250588,40.2279576 48.5050703,40.917768 C48.3850766,41.277669 48.2650828,41.7175481 48.1750875,42.2274079 C48.1450891,42.3773667 48.1250901,42.5373227 48.1050912,42.707276 C48.0250954,43.2171358 47.9850975,43.7769819 48.0050964,44.3768169 C48.0050964,44.7267207 48.0350948,45.0866218 48.0750928,45.4565201 C48.0750928,45.4665173 48.0750928,45.7564376 48.2350844,46.1863194 L48.2350844,46.1963167 C48.5850661,47.1560528 49.715007,48.795602 53.2848205,49.4754151 C53.2848205,49.4754151 58.1745649,50.8750303 66.7041191,46.0063689 C66.7141186,45.9963716 66.724118,45.9963716 66.7341175,45.9863744 C66.7341175,45.9863744 66.7641159,46.0663524 66.8241128,46.2163112 C66.8241128,46.2163112 66.8241128,46.2163112 66.8341123,46.2263084 C67.2940882,47.3260061 69.633966,51.6848076 76.0936283,47.9158439 C76.0936283,47.9158439 78.0035285,46.8261435 79.2934611,45.8864019 C79.543448,45.7064514 79.7634365,45.5364981 79.9534266,45.3765421 C79.9534266,45.3765421 79.2034658,49.6053794 77.0735771,52.654541 C77.0735771,52.654541 75.3436675,55.4627689 74.7436989,55.9236422 C74.7436989,55.9236422 71.0338928,60.3424272 67.83406,62.0219655 C67.83406,62.0219655 65.5841776,63.5515449 64.6442267,63.3216081 C64.6442267,63.3216081 63.5542837,63.6415202 60.8844233,59.8925509 C60.8844233,59.8925509 60.2044588,58.8328423 60.0944645,58.6129028 C60.0944645,58.6129028 59.6344886,57.5631914 58.6845382,57.3232574 C58.6845382,57.3232574 57.7645863,57.0233398 56.3646595,57.5931831 C56.3646595,57.5931831 55.474706,57.9030979 55.6246982,58.9328148 C55.6246982,58.9328148 55.6246982,59.0227901 55.6746956,59.2027406 C55.6746956,59.2117381 55.6746956,59.2227351 55.684695,59.2227351 C55.8046888,59.6126279 56.1946684,60.3824162 57.3846062,61.3921386 C57.3846062,61.3921386 59.2645079,62.9817016 60.7444306,63.6115284 C60.7444306,63.6115284 61.7643773,64.1613772 63.0943078,64.511281 C63.0943078,64.511281 64.96421,64.9711546 66.7041191,64.9411628 C66.7041191,64.9411628 71.2638808,65.3510501 75.4636613,61.3721441 C75.4636613,61.3721441 80.5633947,57.1433068 82.9632693,49.7653354 C82.9632693,49.7653354 84.5731851,45.1166135 84.8731695,44.3068362 C84.8831689,44.2768444 84.8931684,44.2568499 84.9031679,44.2368554 C85.1231564,43.6970038 85.2631491,47.5359483 91.692813,46.3762672 C91.692813,46.3762672 97.1725266,45.8963991 101.712289,37.9185926 C101.712289,37.9185926 103.532194,39.2782188 108.071957,38.4284524 C108.071957,38.4284524 110.981805,37.4287273 114.011646,37.138807 C114.351629,37.098818 114.691611,37.0688262 115.031593,37.058829 L115.071591,37.058829 L115.271581,37.5087053 C115.271581,37.5087053 110.611824,39.1982408 108.711923,42.3073859 C108.711923,42.3073859 106.622033,45.1865943 107.781972,47.6259236 L107.791972,47.6359209 C107.791972,47.6459181 107.801971,47.6559154 107.801971,47.6659126 C107.801971,47.6659126 108.711923,50.6850825 112.901705,49.7253464 C112.901705,49.7253464 114.061644,49.5353986 116.351524,48.4057092 C116.351524,48.4057092 122.37121,44.9966465 122.75119,44.7667097 C122.75119,44.7667097 123.681141,44.1868692 124.321108,43.8169709 C124.431102,43.7569874 124.541096,43.6970038 124.631091,43.6470176 C124.631091,43.6470176 124.741086,46.1563277 125.271058,47.6359209 C125.271058,47.6459181 125.281057,47.6559154 125.291057,47.6659126 C125.381052,47.9158439 125.481047,48.1357834 125.601041,48.3057367 C125.601041,48.3057367 126.410998,49.8253189 128.030914,49.9052969 C128.030914,49.9052969 129.380843,50.1852199 132.270692,48.5356735 C132.270692,48.5356735 135.230537,46.846138 139.300325,42.9172182 C139.39032,42.8372402 139.490315,42.747265 139.58031,42.6572897 C139.58031,42.6572897 139.620308,44.6467427 140.490263,46.6361957 C140.490263,46.646193 140.500262,46.6561902 140.500262,46.6661875 C140.900241,47.5559428 141.471211,48.4456982 142.280169,49.155503 C142.280169,49.155503 144.130072,51.064978 147.99987,49.3554481 C147.99987,49.3554481 151.899666,47.6059291 154.679521,43.9669296 C154.739518,43.8969489 154.799515,43.8269681 154.849512,43.7569874 C154.849512,43.7569874 154.919508,44.4767894 155.339486,45.4265283 L155.339486,45.4365256 C155.959454,46.8261435 157.349381,48.7056267 160.43922,49.5154041 C160.43922,49.5154041 165.97893,51.0149918 171.228656,48.7456157 C171.228656,48.7456157 175.148451,47.0360858 176.548378,43.5470451 C176.558377,43.5270506 176.568377,43.4970588 176.568377,43.4770643 L177.708317,43.2071385 L178.828259,42.9372127 C178.828259,42.9372127 177.618322,43.9269406 177.978303,45.2065888 C177.978303,45.2465778 177.998302,45.2965641 178.008302,45.3365531 C178.008302,45.3365531 178.568272,47.2360308 182.218082,48.4456982 C182.218082,48.4456982 183.458017,49.075525 187.677796,49.7143494 C187.677796,49.7143494 190.377655,50.0952447 193.597487,49.9952722 C193.597487,49.9952722 197.207298,49.8253189 200.577122,48.8155965 C200.577122,48.8155965 205.036889,47.6859071 208.696698,44.4967839 C208.736696,44.4657925 208.786693,44.4268032 208.826691,44.3868142 C208.826691,44.3868142 208.896687,44.856685 209.166673,45.4865118 C209.456658,46.1763222 209.976631,47.0560803 210.866584,47.7258961 C210.866584,47.7258961 215.176359,51.6348214 222.145995,48.8855773 C222.145995,48.8855773 224.185888,48.1757724 226.205783,46.8761298 C226.205783,46.8761298 227.165732,49.1754976 229.205626,49.7953271 C229.205626,49.7953271 230.865539,50.4451485 233.215416,49.2354811 C233.215416,49.2354811 234.785334,48.3357284 235.735284,47.4649679 C235.735284,47.4649679 236.725233,46.5762122 237.285203,46.3962617 C237.285203,46.3962617 238.335149,46.0163661 238.955116,46.1463304 C238.955116,46.1463304 239.435091,46.0863469 240.765022,46.8561353 C240.765022,46.8561353 241.494983,47.1860445 242.144949,47.0260885 C242.144949,47.0260885 242.654923,46.9161188 242.89491,46.3562727 C242.89491,46.3562727 243.114899,45.6864569 242.554928,45.1965915 L242.554928,45.1965915 Z M64.2742461,44.736718 C64.2742461,44.736718 58.9045267,47.5859346 55.6346976,43.7769819 C55.6346976,43.7769819 53.5948043,41.8675069 55.5247034,37.2787685 C55.5247034,37.2787685 57.0746224,34.1796206 61.4143956,34.1696234 C61.4143956,34.1696234 65.5541792,33.9686786 66.6641212,36.818895 L71.0538917,36.7689087 C71.0538917,36.7689087 69.5039727,41.6675618 64.2742461,44.736718 L64.2742461,44.736718 Z M92.3227801,22.9027212 C92.3227801,22.9027212 93.3227278,21.303161 94.4026714,21.6730592 C94.4026714,21.6730592 95.8225972,21.8030235 95.672605,23.7124985 C95.672605,23.7124985 95.5226128,24.4722896 95.2026296,25.3720422 C94.7426536,26.6716849 93.9826933,27.9913221 93.2527315,29.2109867 C92.1227905,31.1104645 90.7628616,32.8899752 89.0929489,34.5595162 L85.6631282,37.8286173 C85.5531339,37.9885734 85.4531391,37.9685789 85.3831428,37.9785761 C85.3831428,37.9785761 86.9730597,29.5508933 92.3227801,22.9027212 L92.3227801,22.9027212 Z M156.059449,23.7624848 C156.309436,24.4323006 156.329435,25.202089 156.149444,25.8519103 C155.989452,26.4017591 155.679469,27.0315859 155.0795,27.6914045 C153.059606,29.9307888 150.699729,31.7902776 147.759883,32.9799505 C149.389797,29.7308438 154.159548,21.1731967 156.049449,23.7424903 C156.049449,23.7524875 156.049449,23.7524875 156.059449,23.7624848 L156.059449,23.7624848 Z M168.698788,38.2485019 C168.708788,38.2584991 168.708788,38.2784936 168.718787,38.2884909 C168.718787,38.2984881 168.728787,38.2984881 168.728787,38.3084854 C168.728787,38.3184826 168.738786,38.3184826 168.738786,38.3284799 C168.738786,38.3284799 168.738786,38.3384772 168.748786,38.3384772 C169.678737,40.3879137 171.458644,42.1274354 172.3086,42.867232 C171.878622,44.0169159 169.948723,47.6659126 163.229074,45.3165586 C163.229074,45.3165586 160.889196,44.3168334 159.599264,42.1774216 C159.589264,42.1674244 159.579265,42.1674244 159.579265,42.1574271 C159.399274,41.7175481 159.269281,41.23768 159.199285,40.7168232 C159.199285,40.7168232 158.579317,38.0885459 162.35912,36.3190324 C164.089029,35.4892605 166.36891,36.4489967 167.788836,35.229332 C167.798835,35.7991753 167.908829,36.3590214 168.09882,36.9088702 C168.248812,37.3587465 168.458801,37.7986256 168.688789,38.2175104 C168.688789,38.2285074 168.698788,38.2385046 168.698788,38.2485019 L168.698788,38.2485019 Z M201.137093,43.3970863 L201.137093,43.4070836 C201.337082,44.2068637 201.037098,45.2765695 200.077148,46.7761572 C195.977362,47.8758549 192.897523,47.2150366 192.897523,47.2150366 C186.777843,46.3762672 184.437966,43.5970313 184.437966,43.5970313 C183.508014,42.587309 182.63806,42.0874464 181.988094,41.8275179 C183.188031,41.1377075 185.357917,39.7580868 186.727846,38.1885184 C190.927626,42.1374326 199.137197,41.0577295 201.127093,43.3870891 L201.137093,43.3970863 L201.137093,43.3970863 Z M227.095736,37.5087053 C227.145733,37.6586641 227.165732,37.7386421 227.165732,37.7386421 L227.225729,37.7286448 C227.466717,38.1685239 227.535713,38.4784387 227.535713,38.4784387 L230.405563,38.1485294 C229.995584,39.5581418 229.205626,40.6078532 229.205626,40.6078532 C227.185731,43.8369654 223.855905,44.8866767 223.855905,44.8866767 C218.776171,46.5462205 216.206305,43.027188 216.206305,43.027188 C216.046314,42.8172457 215.906321,42.6073035 215.786327,42.3973612 C214.786379,39.9580319 216.10631,38.1185376 216.10631,38.1185376 C217.936215,35.1793457 221.776014,35.0593787 221.776014,35.0593787 C224.955848,35.0193897 226.425771,36.4290022 227.075737,37.458719 L227.075737,37.4677166 C227.085737,37.4887108 227.085737,37.498708 227.095736,37.5087053 L227.095736,37.5087053 Z" id="Stroke-6" sketch:type="MSShapeGroup"></path>
                    <path d="M227.13,37.22 L227.07,37.23 C227.07,37.23 227.05,37.15 227,37 C227.05,37.07 227.1,37.15 227.13,37.22 L227.13,37.22 Z" id="Fill-7" fill="#616160" sketch:type="MSShapeGroup"></path>
                    <path d="M227.13,37.22 L227.07,37.23 C227.07,37.23 227.05,37.15 227,37 C227.05,37.07 227.1,37.15 227.13,37.22 L227.13,37.22 Z" id="Stroke-8" sketch:type="MSShapeGroup"></path>
                    <path d="M230.1875,38 C229.887549,39.7896713 228.78773,41.2594014 228.78773,41.2594014 C226.778061,44.4888082 223.438611,45.5386154 223.438611,45.5386154 C218.359447,47.1983106 215.78987,43.6889551 215.78987,43.6889551 C215.439928,43.2190415 215.17997,42.7491278 215,42.3092086 C215.11998,42.51917 215.259957,42.7291314 215.419931,42.9390929 C215.419931,42.9390929 217.989508,46.4584465 223.068672,44.7987513 C223.068672,44.7987513 226.398124,43.7489441 228.417791,40.5195373 C228.417791,40.5195373 229.207661,39.4697301 229.617594,38.059989 L230.1875,38 L230.1875,38 Z" id="Fill-9" fill="#616160" sketch:type="MSShapeGroup"></path>
                    <path d="M230.1875,38 C229.887549,39.7896713 228.78773,41.2594014 228.78773,41.2594014 C226.778061,44.4888082 223.438611,45.5386154 223.438611,45.5386154 C218.359447,47.1983106 215.78987,43.6889551 215.78987,43.6889551 C215.439928,43.2190415 215.17997,42.7491278 215,42.3092086 C215.11998,42.51917 215.259957,42.7291314 215.419931,42.9390929 C215.419931,42.9390929 217.989508,46.4584465 223.068672,44.7987513 C223.068672,44.7987513 226.398124,43.7489441 228.417791,40.5195373 C228.417791,40.5195373 229.207661,39.4697301 229.617594,38.059989 L230.1875,38 L230.1875,38 Z" id="Stroke-10" sketch:type="MSShapeGroup"></path>
                    <path id="Stroke-11" sketch:type="MSShapeGroup"></path>
                    <path d="M32.6534743,30.8767043 C32.6534743,30.8767043 18.984517,36.8128244 18.6095731,29.380926 C18.2816221,22.8808895 30.4458042,25.2675357 30.4458042,25.2675357 C30.4458042,25.2675357 37.9596813,25.9694317 40.966232,23.1638475 C40.966232,23.1638475 46.0394738,20.3602631 44.4887056,14.5631224 C42.9389372,8.76698152 30.3518182,9.51587051 25.4665483,11.2446143 C20.5822782,12.9753577 11.610619,16.7148035 9.26197001,28.1191131 C6.9153207,39.5234227 17.3547606,48.2471296 21.6161237,48.7790507 C33.6023325,53.1194074 42.1560542,45.9384718 48.0031803,40.9302141 C48.2391451,41.0182011 47.8292063,44.0847466 44.3017335,46.814342 C40.0303718,50.1228516 34.7091671,53.5813389 22.5539836,54.1092607 C22.270026,54.120259 9.96686467,54.8091569 2.77993871,45.694508 C-2.33929624,38.4025888 1.04319826,31.6715865 1.74709307,29.8478568 C1.74709307,29.8478568 6.16243322,15.8729282 22.9779202,8.72098833 C22.9769204,8.72098833 38.1016601,2.26994454 48.012179,9.23391231 C53.318386,13.7672404 47.5892422,20.1242981 47.5892422,20.1242981 C47.5892422,20.1242981 42.7979582,26.1094109 32.6534743,30.8767043" id="Fill-12" fill="#1CA6F0" sketch:type="MSShapeGroup"></path>
                    <path d="M130.028822,27.203361 C130.462244,29.9036043 137.9233,30.7453684 136.171634,26.8254669 C135.124031,24.4791245 129.552457,24.1782088 130.028822,27.203361" id="Fill-13" fill="#1EB1FF" sketch:type="MSShapeGroup"></path>
                    <path d="M241.929101,44.9361018 C241.909102,44.6561746 241.779112,44.2962681 241.329146,44.0263382 C241.329146,44.0263382 240.759189,43.5564604 238.899328,43.6764292 C238.899328,43.6764292 238.069391,43.7564084 237.089464,44.2262863 C237.089464,44.2262863 235.469586,44.9860888 235.14961,45.116055 C235.14961,45.116055 232.809786,46.3757277 230.859933,44.1263123 C230.829935,44.1063175 230.809936,44.0763252 230.789938,44.0563304 C230.789938,44.0563304 229.680021,42.2967877 230.429965,39.6974633 C230.429965,39.6974633 230.869932,37.7779621 231.41989,36.97817 L235.519582,36.358331 L235.889555,36.2983466 C235.889555,36.2983466 232.739791,32.5393236 223.84146,32.3793651 C223.84146,32.3793651 217.710921,32.0494509 212.481314,35.4585649 C212.481314,35.4585649 209.241557,37.4680426 207.801665,41.0071229 C207.801665,41.0071229 206.891734,43.3365175 201.662127,45.6859069 C201.462142,45.7758836 201.262157,45.8658602 201.052173,45.9558368 C201.052173,45.9558368 200.6822,45.9658342 200.922182,45.4959563 C200.922182,45.4959563 202.172088,43.7364136 202.542061,42.6666916 C202.542061,42.6666916 203.232009,41.1470865 202.672051,39.6374788 C202.55206,39.2875698 202.362074,38.9476581 202.082095,38.6177439 C202.082095,38.6177439 200.582208,36.0784038 191.932858,34.888713 C191.932858,34.888713 190.352977,34.7087597 189.37305,33.6090455 C189.193064,33.4190949 189.043075,33.2091495 188.913085,32.9592144 C188.913085,32.9592144 190.162991,31.6195626 189.973005,30.3099029 C189.943008,30.1199523 189.883012,29.9399991 189.793019,29.7600458 C189.793019,29.7600458 189.203063,28.6603316 186.663254,29.7600458 C186.663254,29.7600458 185.25336,30.35989 184.753398,31.4496068 C184.753398,31.4496068 184.203439,32.3493729 184.413423,34.2888689 C184.413423,34.2888689 184.59341,35.5085519 184.963382,36.1983726 C184.963382,36.1983726 183.173516,38.3378166 180.173742,39.7374529 C180.173742,39.7374529 177.553939,41.0871021 177.233963,41.1170943 C177.233963,41.1170943 176.893988,41.2470605 176.614009,41.0771047 C176.314032,40.9271437 176.07405,40.4672632 176.294033,39.2975672 C176.294033,39.2975672 176.87399,37.0081622 176.004055,34.8687182 C175.424099,33.4790793 174.224189,32.1494249 171.834368,31.5695756 C171.834368,31.5695756 168.304634,30.6398172 167.474696,32.7592664 C167.474696,32.7592664 167.374704,32.999204 167.124722,32.7292742 C167.124722,32.7292742 166.924737,32.3993599 166.474771,32.3193807 C166.474771,32.3193807 165.454848,31.9694716 162.045104,33.0891807 C162.045104,33.0891807 160.145247,33.719017 159.005333,34.4188351 C159.005333,34.4188351 157.915414,34.9686922 156.435526,36.5582791 C156.435526,36.5582791 155.57559,37.5580193 154.965636,38.5577594 C154.965636,38.5577594 154.485672,39.4275334 154.24569,39.9573957 C154.24569,39.9573957 151.045931,43.9663538 147.756178,44.4862187 C147.506197,44.5262083 145.436352,44.9860888 144.296438,43.2865305 C144.156448,43.0865825 144.036457,42.8466448 143.926466,42.576715 C143.926466,42.576715 143.136525,40.5472424 144.386431,36.5882713 C144.386431,36.5882713 153.105776,31.6195626 153.485747,31.3596301 C153.485747,31.3596301 159.355306,27.6106045 161.255163,21.552179 C161.255163,21.552179 161.596138,20.1525427 161.085176,18.8128909 C160.805197,18.0330935 160.225241,17.273291 159.145322,16.8034131 C159.145322,16.8034131 156.385529,15.1038548 152.315835,18.1130727 C152.315835,18.1130727 146.236292,22.3319763 141.656636,31.8095132 C141.656636,31.8095132 139.596791,36.2683544 138.996836,38.397801 C138.996836,38.397801 134.047208,44.5262083 130.637464,44.8961122 C130.637464,44.8961122 129.587543,45.1960343 128.927593,44.3562525 C128.357636,43.646437 128.057658,42.1168345 128.937592,38.8576815 C128.937592,38.8576815 131.887371,36.358331 131.817376,34.8587208 C131.807377,34.6487753 131.737382,34.4688221 131.598392,34.3088637 C131.598392,34.3088637 130.137502,32.4393495 129.107579,32.0394535 C129.107579,32.0394535 125.197873,35.1686402 123.827976,40.6272216 C123.827976,40.6272216 115.948568,46.0058238 114.06871,45.2560187 C114.028713,45.2560187 113.438757,45.2460213 112.99879,44.7361538 C112.73881,44.4462291 112.518826,43.9363616 112.518826,43.1165747 C112.518826,43.1165747 112.448831,38.3278192 117.828427,35.8184713 C118.008414,35.7284947 118.198399,35.6485155 118.388385,35.5685363 C118.388385,35.5685363 117.568447,35.5485415 114.538674,32.5393236 C114.538674,32.5393236 112.06886,31.9394794 108.509127,33.2291443 C108.509127,33.2291443 106.439283,34.0889208 103.269521,34.2588767 C103.079535,34.2688741 102.88955,34.2788715 102.689565,34.2788715 L102.689565,33.8289884 C102.689565,33.8289884 104.519427,31.3796249 104.199451,29.3601498 C104.179453,29.1701991 104.129457,28.9902459 104.059462,28.8102927 C104.059462,28.8102927 103.479505,28.1604616 102.579573,28.2604356 C102.579573,28.2604356 99.9397715,28.6103446 99.1098338,31.6595522 C99.1098338,31.6595522 98.6498684,32.9392196 99.479806,35.2786117 C99.479806,35.2786117 95.5601006,44.1263123 88.3606417,44.3162629 C88.3606417,44.3162629 86.5207799,44.3062655 85.6908423,43.2765331 C85.2808731,42.8066552 85.1008866,42.1268319 85.3908648,41.1470865 C85.3908648,41.1470865 85.9508228,40.1073567 86.8907521,40.3073048 C86.8907521,40.3073048 87.610698,40.4072788 87.7206897,41.2770527 C87.770686,41.5669774 87.7406882,41.9558763 87.5807003,42.4667436 C87.5807003,42.4667436 87.6206973,42.6666916 88.0806627,42.2967877 C88.0806627,42.2967877 88.0906619,42.2867903 88.1206597,42.2667955 L88.1206597,42.2567981 C88.3706409,42.0268579 89.7505372,40.6772086 89.58055,39.5475022 C89.58055,39.5475022 89.58055,39.5375048 89.5705507,39.5075126 L89.5705507,39.4975152 C89.540553,39.2875698 89.340568,38.5577594 88.2106529,38.0678868 C87.970671,37.9479179 87.7006912,37.8579413 87.370716,37.7779621 C87.370716,37.7779621 101.179678,24.4714203 99.0898353,19.0628259 C99.0898353,19.0628259 99.0898353,19.0528285 99.0798361,19.0328337 C98.9298474,18.6529324 97.5199533,15.3237976 93.9402223,16.1235898 C93.9402223,16.1235898 87.0807378,18.8028935 82.9110512,30.3298978 C82.9110512,30.3298978 79.9712721,39.3575516 79.6712947,41.9468787 C79.6712947,41.9468787 76.6215239,45.116055 74.1417102,45.2360239 C74.1417102,45.2360239 72.7318162,45.5559407 71.6618966,43.8163928 C71.4919094,43.546463 71.3319214,43.2365435 71.1919319,42.8666396 C71.1919319,42.8666396 70.2320041,40.5472424 72.1318613,36.4283129 L75.781587,36.2983466 L75.8515817,36.2983466 C75.8515817,36.2983466 74.6916689,32.5693158 64.9224031,31.9694716 C64.9224031,31.9694716 58.9428525,31.429612 53.9432282,33.9789494 C53.9432282,33.9789494 50.473489,35.2286246 47.9336798,38.8376867 C47.9336798,38.8376867 47.4537159,39.7474503 47.1837362,41.2170683 C47.1137415,41.5769748 47.053746,41.9768709 47.0337475,42.4067591 C47.0037497,42.7166786 46.9937505,43.0465929 47.0037497,43.3865045 C47.0037497,43.7264162 47.0337475,44.0863227 47.0737445,44.4562265 C47.0737445,44.4562265 47.0737445,44.5062135 47.0837437,44.5961901 C47.1137415,44.8261304 47.2137339,45.3359979 47.6137039,45.9258446 L47.6137039,45.935842 C48.2136588,46.8456056 49.5135611,47.9453198 52.2833529,48.475182 C52.2833529,48.475182 57.192984,49.8648209 65.7323422,44.9860888 C65.7323422,44.9860888 65.8323347,45.3060057 66.0823159,45.7458914 C66.1223129,45.8058758 66.1623099,45.8758576 66.2023069,45.9558368 C66.2023069,45.9558368 66.2023069,45.9558368 66.2123062,45.9658342 C67.1622348,47.5154315 69.6820454,50.0747663 75.1016381,46.9155874 C75.1016381,46.9155874 77.8114345,45.3659901 78.9513488,44.3762473 C78.9513488,44.3762473 78.8713548,44.86612 78.6713698,45.6259225 C78.2913984,47.105538 77.4814592,49.6348807 76.0715652,51.6543558 C76.0715652,51.6543558 74.3416952,54.4636257 73.7517395,54.9235062 C73.7517395,54.9235062 70.0320191,59.3423578 66.8422588,61.0219213 C66.8422588,61.0219213 64.5924279,62.5515238 63.6424993,62.3215836 C63.6424993,62.3215836 62.5625804,62.6415004 59.8927811,58.8924747 C59.8927811,58.8924747 59.2028329,57.8327501 59.0928412,57.6028099 C59.0928412,57.6028099 58.6328758,56.5630801 57.6929464,56.3231425 C57.6929464,56.3231425 56.7630163,56.0232204 55.3631215,56.5930723 C55.3631215,56.5930723 54.4731884,56.9029918 54.6231771,57.9327242 C54.6231771,57.9327242 54.6231771,58.302628 55.0531448,58.9424617 C55.0531448,58.9514594 55.0531448,58.9624566 55.063144,58.9624566 C55.3231245,59.3523552 55.7430929,59.8322305 56.3930441,60.392085 C56.3930441,60.392085 58.2629036,61.9816719 59.7427923,62.6115082 C59.7427923,62.6115082 60.7627157,63.1613653 62.102615,63.5112744 C62.102615,63.5112744 63.9624752,63.9711549 65.7123437,63.9411627 C65.7123437,63.9411627 70.2620018,64.3510561 74.4616862,60.3720902 C74.4616862,60.3720902 79.5713022,56.1331918 81.9611226,48.7651067 C81.9611226,48.7651067 83.5710016,44.1063175 83.8809783,43.3065253 C83.8909776,43.2765331 83.9009768,43.2565383 83.9009768,43.2365435 C84.1209603,42.6966838 84.270949,46.5356861 90.6904666,45.3759875 C90.6904666,45.3759875 96.180054,44.8961122 100.719713,36.9181855 C100.719713,36.9181855 102.539576,38.2778322 107.079235,37.428053 C107.079235,37.428053 110.668965,36.1883752 114.028713,36.058409 L114.06871,36.058409 L114.278694,36.5082921 C114.278694,36.5082921 113.92872,36.6282609 113.388761,36.8781959 C111.93887,37.5280271 109.099083,39.0376347 107.709188,41.3070449 C107.709188,41.3070449 105.599346,44.2162889 106.809255,46.6656523 C106.809255,46.6656523 106.899248,46.9755718 107.159229,47.3654704 L107.169228,47.3754678 C107.739185,48.2052522 109.069085,49.3749482 111.898873,48.7251171 C111.898873,48.7251171 113.058786,48.5351665 115.358613,47.4054601 C115.358613,47.4054601 121.368161,43.996346 121.748133,43.7664058 C121.748133,43.7664058 123.048035,42.9566162 123.627991,42.6366994 C123.627991,42.6366994 123.64799,43.0066033 123.697986,43.5564604 C123.797978,44.6761694 124.04796,46.5056939 124.607918,47.305486 C124.607918,47.305486 124.617917,47.3254808 124.647915,47.3754678 C124.647915,47.3854652 124.657914,47.3954627 124.667913,47.4054601 C124.877897,47.7453717 125.667838,48.8250911 127.037735,48.8950729 C127.037735,48.8950729 128.387634,49.1849976 131.267417,47.5354263 C131.267417,47.5354263 134.377183,45.7658862 138.586867,41.656954 C138.586867,41.656954 138.597866,42.0468527 138.67686,42.6566942 C138.806851,43.59645 139.116827,45.0460732 139.866771,46.3757277 C139.866771,46.3857251 139.87677,46.3957225 139.87677,46.4057199 C140.236743,47.0355562 140.696708,47.6453977 141.276665,48.1552652 C141.276665,48.1552652 143.126526,50.0647689 146.996235,48.3552132 C146.996235,48.3552132 151.05593,46.5356861 153.84572,42.7566682 C153.84572,42.7566682 153.875718,43.1365695 154.055705,43.7064214 C154.185695,44.1163149 154.38568,44.6261823 154.715655,45.166042 L154.715655,45.1760394 C155.475598,46.4257147 156.855494,47.8353483 159.4353,48.5051743 C159.4353,48.5051743 164.984883,50.0147819 170.234489,47.7353743 C170.234489,47.7353743 174.154194,46.0258186 175.554089,42.5467228 C175.554089,42.5167306 175.564088,42.4967358 175.574087,42.476741 L177.823918,41.9268839 C177.823918,41.9268839 177.344954,42.3267799 177.083974,42.9466188 C176.913987,43.3365175 176.833993,43.8163928 177.013979,44.3262603 C177.013979,44.3262603 177.083974,44.5761953 177.353954,44.9460992 C177.80392,45.6059277 178.873839,46.6656523 181.223663,47.4454497 C181.223663,47.4454497 182.46357,48.075286 186.683252,48.7151197 C186.683252,48.7151197 189.37305,49.095021 192.593808,48.9950469 C192.593808,48.9950469 196.202537,48.8150937 199.572284,47.8053561 C199.572284,47.8053561 204.15194,46.6556549 207.821664,43.3865045 C207.821664,43.3865045 207.881659,43.7364136 208.071645,44.2362837 C208.171638,44.5262083 208.331626,44.86612 208.54161,45.2260265 C208.851586,45.7358939 209.281554,46.2757536 209.861511,46.7256367 C209.861511,46.7256367 214.181186,50.6346208 221.150662,47.8853353 C221.150662,47.8853353 223.18051,47.1755198 225.200358,45.8658602 C225.200358,45.8658602 226.160286,48.17526 228.200132,48.7950989 C228.200132,48.7950989 229.860008,49.44493 232.209831,48.2352444 C232.209831,48.2352444 233.779713,47.3354782 234.729642,46.4547071 C234.729642,46.4547071 235.01962,46.1957744 235.379593,45.9258446 C235.67957,45.704902 236.019545,45.4659641 236.289524,45.3859849 C236.289524,45.3859849 236.579503,45.2760135 236.949475,45.2060317 C236.959474,45.1960343 236.959474,45.1960343 236.969473,45.2060317 C237.299449,45.1360498 237.669421,45.0860628 237.959399,45.1460472 C237.959399,45.1460472 238.439363,45.0860628 239.769263,45.8558628 C239.769263,45.8558628 240.499208,46.185777 241.13916,46.0258186 C241.13916,46.0258186 241.649122,45.9158472 241.899103,45.3459953 C241.899103,45.3459953 241.959098,45.166042 241.929101,44.9361018 L241.929101,44.9361018 Z M63.6524985,44.4762213 C63.6524985,44.4762213 58.2829021,47.3254808 55.0131478,43.5164707 C55.0131478,43.5164707 52.9733011,41.606967 54.9031561,37.0181596 C54.9031561,37.0181596 56.4530396,33.918965 60.7927134,33.9089676 C60.7927134,33.9089676 64.9324023,33.7080198 66.0423189,36.5582791 L70.431989,36.5082921 C70.431989,36.5082921 68.8821055,41.407019 63.6524985,44.4762213 L63.6524985,44.4762213 Z M84.7609122,37.7179777 C84.7609122,37.7179777 86.3507927,29.290168 91.7003907,22.6418958 C91.7003907,22.6418958 92.7003155,21.0423115 93.7802344,21.4122153 C93.7802344,21.4122153 95.2001276,21.5421816 95.0501389,23.4516853 C95.0501389,23.4516853 94.9001502,24.2114878 94.5801742,25.111254 C94.1202088,26.4109162 93.3602659,27.7305733 92.6303208,28.9502563 C91.5004057,30.8497626 90.1405079,32.6293002 88.4706334,34.2988663 L85.0408911,37.5680167 C84.9308994,37.7279751 84.8309069,37.7079803 84.7609122,37.7179777 L84.7609122,37.7179777 Z M155.135623,22.8618386 C155.255614,23.0517892 155.355607,23.2617347 155.425602,23.4816775 C155.425602,23.4916749 155.425602,23.4916749 155.435601,23.5016723 C155.685582,24.1714982 155.705581,24.9412982 155.525594,25.5911293 C155.365606,26.1409864 155.055629,26.7708227 154.455674,27.4306512 C152.435826,29.6700692 150.076004,31.529586 147.136225,32.7192768 C146.847246,32.849243 146.546269,32.9592144 146.236292,33.0691858 C146.806249,31.7195366 153.015783,19.4527246 155.135623,22.8618386 L155.135623,22.8618386 Z M158.955336,41.8968917 C158.585364,41.2670553 158.295386,40.5472424 158.195393,39.7174581 C158.195393,39.7174581 157.57544,37.0881414 161.365155,35.3086039 C163.125023,34.4688221 165.454848,35.4885571 166.864742,34.1689 C166.864742,34.1689 166.924737,34.0289364 166.994732,34.0289364 C167.064727,34.0289364 167.134722,34.1589026 167.164719,34.6987623 C167.164719,34.788739 167.15472,34.8787156 167.164719,34.9686922 C167.174719,35.5385441 167.28471,36.0983986 167.474696,36.6482557 C167.624685,37.0981388 167.834669,37.5380245 168.064652,37.9569156 C168.064652,37.9679127 168.074651,37.9779101 168.074651,37.9879075 C168.08465,37.9979049 168.08465,38.0178997 168.094649,38.0278971 C168.094649,38.0378946 168.104649,38.0378946 168.104649,38.047892 C168.104649,38.0578894 168.114648,38.0578894 168.114648,38.0678868 C168.114648,38.0678868 168.114648,38.0778842 168.124647,38.0778842 C169.484545,40.4672632 171.784372,42.2767929 171.784372,42.2767929 C171.784372,42.2767929 171.754374,42.3967617 171.68438,42.6067072 C171.254412,43.7564084 169.324557,47.4054601 162.605062,45.0560706 C162.605062,45.0560706 160.265238,44.0563304 158.975335,41.9168865 C158.965336,41.9068891 158.955336,41.9068891 158.955336,41.8968917 L158.955336,41.8968917 Z M180.113746,41.3070449 C180.113746,41.3070449 183.753473,39.4475282 185.733324,37.1881154 C190.322979,41.4969956 199.702274,39.8174321 200.502214,43.1265721 L200.512213,43.1365695 L200.512213,43.1465669 C200.712198,43.946359 200.412221,45.016081 199.452293,46.5156913 C195.352601,47.6154055 192.272832,46.9545772 192.272832,46.9545772 C186.153292,46.1157952 183.813468,43.3365175 183.813468,43.3365175 C182.883538,42.3267799 182.013603,41.8269098 181.363652,41.5669774 C180.603709,41.2670553 180.113746,41.3070449 180.113746,41.3070449 L180.113746,41.3070449 Z M215.111116,37.1181336 C216.930979,34.1788975 220.78069,34.0489312 220.78069,34.0489312 C224.870383,33.9989442 226.130288,36.3683284 226.450264,37.1981128 L226.450264,37.2071105 C226.460263,37.228105 226.460263,37.2381024 226.470262,37.2480998 C226.520259,37.3980608 226.540257,37.47804 226.540257,37.47804 L226.600253,37.4680426 L229.969999,37.0881414 C229.920003,37.3680686 229.860008,37.6280011 229.780014,37.8879335 C229.370044,39.2975672 228.580104,40.3472944 228.580104,40.3472944 C226.560256,43.5764552 223.230506,44.6261823 223.230506,44.6261823 C218.150888,46.285751 215.581081,42.7666656 215.581081,42.7666656 C215.421093,42.5567202 215.281103,42.3467747 215.161112,42.1368293 C213.511236,39.3475542 215.111116,37.1181336 215.111116,37.1181336 L215.111116,37.1181336 Z" id="Fill-14" fill="#1CA6F0" sketch:type="MSShapeGroup"></path>
                    <text id="desde-1965" sketch:type="MSTextLayer" font-family="Merriweather" font-size="10" font-style="italic" font-weight="normal" fill="#EE552B">
                        <tspan x="181" y="66">desde 1965</tspan>
                    </text>
                    <text id="CARNES-Y-EMBUTIDOS" sketch:type="MSTextLayer" font-family="Merriweather" font-size="8" font-style="italic" font-weight="bold" letter-spacing="1.20000005" fill="#EE552B">
                        <tspan x="107" y="8">CARNES Y EMBUTIDOS</tspan>
                    </text>
                </g>
            </g>
        </g>
    </g>
</svg>