<?xml version="1.0" encoding="UTF-8" standalone="no"?>
<svg width="167px" height="52px" viewBox="0 0 167 52" version="1.1" xmlns="http://www.w3.org/2000/svg" xmlns:xlink="http://www.w3.org/1999/xlink" xmlns:sketch="http://www.bohemiancoding.com/sketch/ns">
    <!-- Generator: bin/sketchtool 1.4 (305) - http://www.bohemiancoding.com/sketch -->
    <title>Brand</title>
    <desc>Created with bin/sketchtool.</desc>
    <defs>
        <filter x="-50%" y="-50%" width="200%" height="200%" filterUnits="objectBoundingBox" id="filter-1">
            <feOffset dx="0" dy="2" in="SourceAlpha" result="shadowOffsetOuter1"></feOffset>
            <feGaussianBlur stdDeviation="2" in="shadowOffsetOuter1" result="shadowBlurOuter1"></feGaussianBlur>
            <feColorMatrix values="0 0 0 0 0   0 0 0 0 0   0 0 0 0 0  0 0 0 0.35 0" in="shadowBlurOuter1" type="matrix" result="shadowMatrixOuter1"></feColorMatrix>
            <feMerge>
                <feMergeNode in="shadowMatrixOuter1"></feMergeNode>
                <feMergeNode in="SourceGraphic"></feMergeNode>
            </feMerge>
        </filter>
    </defs>
    <g id="Components" stroke="none" stroke-width="1" fill="none" fill-rule="evenodd" sketch:type="MSPage">
        <g sketch:type="MSArtboardGroup" transform="translate(-578.000000, -3221.000000)" id="Menu-Nav---Desktop">
            <g sketch:type="MSLayerGroup" transform="translate(464.000000, 3207.000000)">
                <g id="Brand" transform="translate(118.000000, 16.000000)">
                    <g id="Imported-Layers-Copy-5" sketch:type="MSShapeGroup">
                        <path d="M21.5087085,18.5104068 C21.5087085,18.5104068 12.5367409,22.8373729 12.2906369,17.4201017 C12.075378,12.6820847 20.0596482,14.4217627 20.0596482,14.4217627 C20.0596482,14.4217627 24.9915724,14.9333898 26.9649984,12.888339 C26.9649984,12.888339 30.2949497,10.8447458 29.2770635,6.61908475 C28.2598336,2.39415254 19.9979581,2.9400339 16.791387,4.20015254 C13.5854721,5.46172881 7.6966955,8.18749153 6.15510001,16.500339 C4.61481708,24.8131864 11.4670089,31.1720847 14.2640629,31.5598136 C22.1315157,34.7235932 27.7459684,29.4892542 31.5838784,25.8386271 C31.7387598,25.9027627 31.4696861,28.1380339 29.1543396,30.1276949 C26.3507228,32.539339 22.8580148,35.0603051 14.8796511,35.4451186 C14.6932683,35.4531356 6.61777554,35.9552881 1.90045397,29.3114237 C-1.45968605,23.9961864 0.760500219,19.0898136 1.22251947,17.7604576 C1.22251947,17.7604576 4.12064023,7.57383051 15.1579127,2.36062712 C15.1572564,2.36062712 25.0847638,-2.34167797 31.5897849,2.73450847 C35.0726487,6.03894915 31.3121795,10.6734746 31.3121795,10.6734746 C31.3121795,10.6734746 28.1672985,15.0354237 21.5087085,18.5104068" id="Fill-1" fill="#FFFFFF"></path>
                        <path d="M158.955498,28.970339 C158.942373,28.7662712 158.857057,28.5038983 158.561732,28.3071186 C158.561732,28.3071186 158.187654,27.9645763 156.966978,28.0520339 C156.966978,28.0520339 156.422268,28.110339 155.779116,28.4528814 C155.779116,28.4528814 154.715947,29.0067797 154.505938,29.1015254 C154.505938,29.1015254 152.970249,30.0198305 151.690508,28.38 C151.67082,28.3654237 151.657694,28.3435593 151.644569,28.3289831 C151.644569,28.3289831 150.916101,27.0462712 151.408309,25.1513559 C151.408309,25.1513559 151.697071,23.7520339 152.058023,23.1689831 L154.748761,22.7171186 L154.991583,22.6733898 C154.991583,22.6733898 152.92431,19.9330508 147.084097,19.8164407 C147.084097,19.8164407 143.060461,19.5759322 139.628131,22.0611864 C139.628131,22.0611864 137.501792,23.5261017 136.556753,26.1061017 C136.556753,26.1061017 135.95954,27.8042373 132.52721,29.5169492 C132.395954,29.5825424 132.264699,29.6481356 132.12688,29.7137288 C132.12688,29.7137288 131.884058,29.7210169 132.041564,29.3784746 C132.041564,29.3784746 132.861911,28.0957627 133.104734,27.316661 C133.104734,27.316661 133.557565,26.2081356 133.19005,25.1076271 C133.111296,24.8525424 132.986604,24.6047458 132.802846,24.3642373 C132.802846,24.3642373 131.81843,22.5130508 126.141631,21.6457627 C126.141631,21.6457627 125.104713,21.5145763 124.461561,20.7128814 C124.343431,20.5751356 124.244989,20.4213559 124.159673,20.2391525 C124.159673,20.2391525 124.98002,19.2625424 124.855327,18.3077966 C124.835639,18.169322 124.796262,18.0381356 124.737198,17.9069492 C124.737198,17.9069492 124.349994,17.1052542 122.683049,17.9069492 C122.683049,17.9069492 121.757698,18.3442373 121.42956,19.1386441 C121.42956,19.1386441 121.068607,19.7945763 121.206425,21.2084746 C121.206425,21.2084746 121.324555,22.0976271 121.567378,22.6005085 C121.567378,22.6005085 120.392641,24.1601695 118.423809,25.1805085 C118.423809,25.1805085 116.704363,26.1644068 116.494354,26.1862712 C116.494354,26.1862712 116.27122,26.2810169 116.087462,26.1571186 C115.890579,26.0477966 115.733072,25.7125424 115.877453,24.8598305 C115.877453,24.8598305 116.258094,23.1908475 115.687133,21.6311864 C115.306492,20.6181356 114.518959,19.6488136 112.950456,19.2261017 C112.950456,19.2261017 110.633797,18.5483051 110.089087,20.0933898 C110.089087,20.0933898 110.023459,20.2683051 109.85939,20.0715254 C109.85939,20.0715254 109.728135,19.8310169 109.43281,19.7727119 C109.43281,19.7727119 108.763407,19.5176271 106.525501,20.3338983 C106.525501,20.3338983 105.278574,20.7930508 104.530418,21.3039492 C104.530418,21.3039492 103.815076,21.7040678 102.843785,22.8628814 C102.843785,22.8628814 102.279387,23.5916949 101.879058,24.3205085 C101.879058,24.3205085 101.564044,24.9545763 101.406538,25.3408475 C101.406538,25.3408475 99.3064503,28.2633898 97.1472979,28.6423729 C96.9832285,28.6715254 95.6247344,29.0067797 94.8765782,27.7677966 C94.7846994,27.6220339 94.7059461,27.4471186 94.6337556,27.250339 C94.6337556,27.250339 94.1152965,25.7708475 94.9356432,22.8847458 C94.9356432,22.8847458 100.658382,19.2625424 100.907767,19.0730508 C100.907767,19.0730508 104.760115,16.34 106.007042,11.9233898 C106.007042,11.9233898 106.230833,10.9030508 105.895475,9.92644068 C105.711717,9.3579661 105.331076,8.8040678 104.622297,8.46152542 C104.622297,8.46152542 102.810971,7.22254237 100.139923,9.41627119 C100.139923,9.41627119 96.1497563,12.4918644 93.144006,19.4010169 C93.144006,19.4010169 91.7920747,22.6515254 91.3983083,24.2038983 C91.3983083,24.2038983 88.1497354,28.6715254 85.9118297,28.9411864 C85.9118297,28.9411864 85.2227385,29.1598305 84.7895954,28.5476271 C84.4155173,28.0301695 84.2186341,26.9150847 84.7961582,24.5391525 C84.7961582,24.5391525 86.7321764,22.7171186 86.6862369,21.6238983 C86.6796742,21.4708475 86.6337348,21.339661 86.5425122,21.2230508 C86.5425122,21.2230508 85.583691,19.8601695 84.9077253,19.5686441 C84.9077253,19.5686441 82.3416809,21.8505593 81.4425809,25.8291525 C81.4425809,25.8291525 76.2711155,29.7501695 75.037314,29.2035593 C75.0110629,29.2035593 74.6238593,29.1962712 74.3350973,28.8245763 C74.1644652,28.6132203 74.0200842,28.2415254 74.0200842,27.6438983 C74.0200842,27.6438983 73.9741447,24.1528814 77.5049169,22.3235593 C77.6230468,22.2579661 77.7477395,22.199661 77.8724322,22.1413559 C77.8724322,22.1413559 77.3342848,22.1267797 75.3457644,19.9330508 C75.3457644,19.9330508 73.7247593,19.4957627 71.388412,20.4359322 C71.388412,20.4359322 70.0299179,21.0627119 67.9495187,21.1866102 C67.824826,21.1938983 67.7001333,21.2011864 67.5688778,21.2011864 L67.5688778,20.8732203 C67.5688778,20.8732203 68.7698654,19.0876271 68.5598566,17.6154237 C68.5467311,17.4769492 68.5139172,17.3457627 68.4679778,17.2145763 C68.4679778,17.2145763 68.0873369,16.7408475 67.4966873,16.8137288 C67.4966873,16.8137288 65.7641151,17.0688136 65.2194049,19.2916949 C65.2194049,19.2916949 64.9175174,20.2245763 65.4622276,21.93 C65.4622276,21.93 62.8896204,28.38 58.1644235,28.5184746 C58.1644235,28.5184746 56.9568731,28.5111864 56.4121629,27.7605085 C56.1430892,27.4179661 56.0249593,26.9223729 56.2152797,26.2081356 C56.2152797,26.2081356 56.5827951,25.4501695 57.1996958,25.5959322 C57.1996958,25.5959322 57.6722154,25.6688136 57.744406,26.3028814 C57.7772198,26.5142373 57.7575315,26.7984746 57.6525271,27.1701695 C57.6525271,27.1701695 57.6787782,27.316661 57.9806658,27.0462712 C57.9806658,27.0462712 57.9872286,27.0389831 58.0069169,27.0244068 L58.0069169,27.0171186 C58.1709862,26.8494915 59.076649,25.8655932 58.9650818,25.0420339 C58.9650818,25.0420339 58.9650818,25.0347458 58.958519,25.0128814 L58.958519,25.0055932 C58.9388307,24.8525424 58.8075753,24.3205085 58.0659819,23.9633898 C57.9084753,23.8759322 57.7312804,23.810339 57.5147089,23.7520339 C57.5147089,23.7520339 66.577899,14.0515254 65.2062794,10.1086441 C65.2062794,10.1086441 65.2062794,10.1013559 65.1997166,10.0867797 C65.101275,9.80983051 64.175924,7.38288136 61.8264511,7.9659322 C61.8264511,7.9659322 57.3243885,9.91915254 54.5877119,18.3223729 C54.5877119,18.3223729 52.6582565,24.9035593 52.4613733,26.7911864 C52.4613733,26.7911864 50.4597274,29.1015254 48.8321596,29.1889831 C48.8321596,29.1889831 47.9068085,29.4222034 47.2045918,28.1540678 C47.0930246,27.9572881 46.9880202,27.7313559 46.8961414,27.4616949 C46.8961414,27.4616949 46.2661152,25.7708475 47.5130421,22.7681356 L49.9084544,22.6733898 L49.9543939,22.6733898 C49.9543939,22.6733898 49.1931121,19.9549153 42.7812825,19.5176271 C42.7812825,19.5176271 38.8567439,19.1240678 35.5753572,20.9825424 C35.5753572,20.9825424 33.2980748,21.8935593 31.6311303,24.5245763 C31.6311303,24.5245763 31.3161172,25.1877966 31.1389223,26.2591525 C31.0929829,26.5215254 31.0536063,26.8130508 31.0404807,27.1264407 C31.0207924,27.3523729 31.0142296,27.5928814 31.0207924,27.840678 C31.0207924,28.0884746 31.0404807,28.3508475 31.0667318,28.6205085 C31.0667318,28.6205085 31.0667318,28.6569492 31.0732946,28.7225424 C31.0929829,28.8901695 31.1586106,29.2618644 31.4211216,29.6918644 L31.4211216,29.6991525 C31.814888,30.3623729 32.6680485,31.1640678 34.4859368,31.550339 C34.4859368,31.550339 37.7082586,32.5633898 43.3128671,29.0067797 C43.3128671,29.0067797 43.3784948,29.24 43.5425642,29.560678 C43.5688153,29.6044068 43.5950664,29.6554237 43.6213175,29.7137288 C43.6213175,29.7137288 43.6213175,29.7137288 43.6278802,29.7210169 C44.2513437,30.850678 45.9051626,32.7164407 49.4621858,30.4141186 C49.4621858,30.4141186 51.2406975,29.2837288 51.9888536,28.5622034 C51.9888536,28.5622034 51.9363514,28.919322 51.805096,29.4732203 C51.5557106,30.5518644 51.0241259,32.3957627 50.0987749,33.8679661 C50.0987749,33.8679661 48.9634151,35.9159322 48.5762114,36.2511864 C48.5762114,36.2511864 46.1348597,39.4725424 44.041335,40.6969492 C44.041335,40.6969492 42.5647109,41.8120339 41.9412474,41.6444068 C41.9412474,41.6444068 41.2324679,41.8776271 39.4802074,39.1445763 C39.4802074,39.1445763 39.027376,38.3720339 38.9551855,38.2044068 C38.9551855,38.2044068 38.6532979,37.4464407 38.0363972,37.2715254 C38.0363972,37.2715254 37.4260593,37.0528814 36.507271,37.4683051 C36.507271,37.4683051 35.9231842,37.6942373 36.0216258,38.4449153 C36.0216258,38.4449153 36.0216258,38.7145763 36.303825,39.1810169 C36.303825,39.1883051 36.303825,39.1955932 36.3103878,39.1955932 C36.4810199,39.4798305 36.7566564,39.829661 37.1832367,40.2377966 C37.1832367,40.2377966 38.4104753,41.3966102 39.3817658,41.8557627 C39.3817658,41.8557627 40.0511687,42.2566102 40.9305803,42.5116949 C40.9305803,42.5116949 42.1512562,42.8469492 43.2997416,42.8250847 C43.2997416,42.8250847 46.2858035,43.1238983 49.0421683,40.2232203 C49.0421683,40.2232203 52.3957456,37.1330508 53.9642484,31.7616949 C53.9642484,31.7616949 55.020855,28.3654237 55.2243009,27.7823729 C55.2308637,27.7605085 55.2374265,27.7459322 55.2374265,27.7313559 C55.3818075,27.3377966 55.4802491,30.1364407 59.6935497,29.2910169 C59.6935497,29.2910169 63.2965123,28.9411864 66.2760115,23.1252542 C66.2760115,23.1252542 67.4704362,24.1164407 70.4499354,23.4969492 C70.4499354,23.4969492 72.8059711,22.5932203 75.0110629,22.4984746 L75.037314,22.4984746 L75.1751323,22.8264407 C75.1751323,22.8264407 74.9454352,22.9138983 74.5910454,23.0961017 C73.6394433,23.5698305 71.7756156,24.670339 70.8633901,26.3247458 C70.8633901,26.3247458 69.4786449,28.4455932 70.2727405,30.2311864 C70.2727405,30.2311864 70.3318055,30.4571186 70.5024376,30.7413559 L70.5090004,30.7486441 C70.8830784,31.3535593 71.7559273,32.2062712 73.6131922,31.7325424 C73.6131922,31.7325424 74.3744739,31.5940678 75.8839118,30.7705085 C75.8839118,30.7705085 79.8281387,28.2852542 80.0775241,28.1176271 C80.0775241,28.1176271 80.9306846,27.5272881 81.3113255,27.2940678 C81.3113255,27.2940678 81.324451,27.5637288 81.3572649,27.9645763 C81.4228926,28.7808475 81.586962,30.1145763 81.9544773,30.6976271 C81.9544773,30.6976271 81.9610401,30.7122034 81.9807284,30.7486441 C81.9807284,30.7559322 81.9872911,30.7632203 81.9938539,30.7705085 C82.1316722,31.0183051 82.6501313,31.8054237 83.5492312,31.8564407 C83.5492312,31.8564407 84.4352056,32.0677966 86.3252844,30.8652542 C86.3252844,30.8652542 88.366307,29.5752542 91.1292346,26.5798305 C91.1292346,26.5798305 91.1364536,26.8640678 91.1882995,27.3086441 C91.2736156,27.9937288 91.4770616,29.0505085 91.9692696,30.0198305 C91.9692696,30.0271186 91.9758324,30.0344068 91.9758324,30.0416949 C92.2120922,30.5008475 92.5139798,30.9454237 92.8946206,31.3171186 C92.8946206,31.3171186 94.1087337,32.7091525 96.6485271,31.4628814 C96.6485271,31.4628814 99.3130131,30.1364407 101.144027,27.3815254 C101.144027,27.3815254 101.163715,27.6584746 101.281845,28.0738983 C101.367161,28.3727119 101.498417,28.7444068 101.714988,29.1379661 L101.714988,29.1452542 C102.213759,30.0562712 103.119422,31.0838983 104.812617,31.5722034 C104.812617,31.5722034 108.454957,32.6727119 111.900413,31.0110169 C111.900413,31.0110169 114.47302,29.7647458 115.391808,27.2284746 C115.391808,27.2066102 115.398371,27.1920339 115.404934,27.1774576 L116.881558,26.7766102 C116.881558,26.7766102 116.567201,27.0681356 116.395912,27.52 C116.284345,27.8042373 116.231843,28.1540678 116.349973,28.5257627 C116.349973,28.5257627 116.395912,28.7079661 116.573107,28.9776271 C116.868432,29.4586441 117.570649,30.2311864 119.112901,30.799661 C119.112901,30.799661 119.926685,31.2588136 122.696175,31.7252542 C122.696175,31.7252542 124.461561,32.0022034 126.57543,31.929322 C126.57543,31.929322 128.943935,31.7981356 131.15559,31.0620339 C131.15559,31.0620339 134.16134,30.2238983 136.569878,27.840678 C136.569878,27.840678 136.609255,28.0957627 136.733947,28.4601695 C136.799575,28.6715254 136.90458,28.919322 137.042398,29.1816949 C137.245844,29.5533898 137.528043,29.9469492 137.908684,30.2749153 C137.908684,30.2749153 140.743802,33.1245763 145.318055,31.120339 C145.318055,31.120339 146.650298,30.6028814 147.975978,29.6481356 C147.975978,29.6481356 148.606005,31.3316949 149.94481,31.7835593 C149.94481,31.7835593 151.034231,32.2572881 152.576483,31.3754237 C152.576483,31.3754237 153.606838,30.7194915 154.230301,30.0781356 C154.230301,30.0781356 154.420622,29.8886441 154.656882,29.6918644 C154.853765,29.5315254 155.076899,29.3566102 155.254094,29.2983051 C155.254094,29.2983051 155.444415,29.2181356 155.687237,29.1671186 C155.6938,29.1598305 155.6938,29.1598305 155.700363,29.1671186 C155.916934,29.1161017 156.159757,29.079661 156.350077,29.1233898 C156.350077,29.1233898 156.66509,29.079661 157.537939,29.6408475 C157.537939,29.6408475 158.017022,29.8813559 158.437039,29.7647458 C158.437039,29.7647458 158.771741,29.6845763 158.93581,29.2691525 C158.93581,29.2691525 158.975187,29.1379661 158.955498,28.970339 L158.955498,28.970339 Z M41.9478102,28.6350847 C41.9478102,28.6350847 38.4236009,30.7122034 36.2775739,27.9354237 C36.2775739,27.9354237 34.9387682,26.5433898 36.2053834,23.1981356 C36.2053834,23.1981356 37.2226133,20.9388136 40.070857,20.9315254 C40.070857,20.9315254 42.7878452,20.7857627 43.5163131,22.8628814 L46.3973706,22.8264407 C46.3973706,22.8264407 45.3801407,26.3976271 41.9478102,28.6350847 L41.9478102,28.6350847 Z M55.801825,23.7083051 C55.801825,23.7083051 56.845306,17.5644068 60.3563898,12.7177966 C60.3563898,12.7177966 61.0126671,11.5516949 61.7214467,11.8213559 C61.7214467,11.8213559 62.6533605,11.9161017 62.5549189,13.3081356 C62.5549189,13.3081356 62.4564773,13.8620339 62.2464686,14.5179661 C61.944581,15.4654237 61.4458102,16.4274576 60.9667277,17.3166102 C60.2251343,18.7013559 59.3325971,19.9986441 58.236614,21.2157627 L55.9855827,23.5989831 C55.9133922,23.7155932 55.8477644,23.7010169 55.801825,23.7083051 L55.801825,23.7083051 Z M101.990625,12.8781356 C102.069378,13.0166102 102.135006,13.169661 102.180945,13.33 C102.180945,13.3372881 102.180945,13.3372881 102.187508,13.3445763 C102.351577,13.8328814 102.364703,14.3940678 102.246573,14.8677966 C102.141568,15.2686441 101.938122,15.7277966 101.544356,16.2088136 C100.218676,17.8413559 98.6698613,19.1969492 96.7404059,20.0642373 C96.5507417,20.1589831 96.3532023,20.2391525 96.1497563,20.319322 C96.5238344,19.3354237 100.599317,10.3928814 101.990625,12.8781356 L101.990625,12.8781356 Z M104.497604,26.7547458 C104.254782,26.2955932 104.064461,25.7708475 103.998833,25.1659322 C103.998833,25.1659322 103.591941,23.2491525 106.079233,21.9518644 C107.234281,21.339661 108.763407,22.0830508 109.688758,21.1217458 C109.688758,21.1217458 109.728135,21.0189831 109.774074,21.0189831 C109.820013,21.0189831 109.865953,21.1137288 109.885641,21.5072881 C109.885641,21.5728814 109.879078,21.6384746 109.885641,21.7040678 C109.892204,22.1194915 109.964394,22.5276271 110.089087,22.9284746 C110.187529,23.2564407 110.325347,23.5771186 110.476291,23.8832203 C110.476291,23.8905085 110.482854,23.8977966 110.482854,23.9050847 C110.489416,23.9123729 110.489416,23.9269492 110.495979,23.9342373 C110.495979,23.9415254 110.502542,23.9415254 110.502542,23.9488136 C110.502542,23.9561017 110.509105,23.9561017 110.509105,23.9633898 C110.509105,23.9633898 110.509105,23.970678 110.515667,23.970678 C111.408205,25.7125424 112.917642,27.0316949 112.917642,27.0316949 C112.917642,27.0316949 112.897954,27.1191525 112.852015,27.2722034 C112.569816,28.110339 111.3032,30.7705085 106.893016,29.0577966 C106.893016,29.0577966 105.357327,28.3289831 104.51073,26.7700508 C104.504167,26.7620339 104.497604,26.7620339 104.497604,26.7547458 L104.497604,26.7547458 Z M118.384433,26.3247458 C118.384433,26.3247458 120.773282,24.9691525 122.072711,23.3220339 C125.085025,26.4632203 131.240906,25.2388136 131.765928,27.6511864 L131.772491,27.6584746 L131.772491,27.6657627 C131.903746,28.2488136 131.706863,29.0286441 131.076837,30.1218644 C128.3861,30.9235593 126.364765,30.4425424 126.364765,30.4425424 C122.348348,29.830339 120.812659,27.8042373 120.812659,27.8042373 C120.202321,27.0681356 119.63136,26.7037288 119.204779,26.5142373 C118.706009,26.2955932 118.384433,26.3247458 118.384433,26.3247458 L118.384433,26.3247458 Z M141.35414,23.2710169 C142.548565,21.1283051 145.075232,21.0335593 145.075232,21.0335593 C147.759407,20.9971186 148.586316,22.7244068 148.796325,23.329322 L148.796325,23.3366102 C148.802888,23.3511864 148.802888,23.3584746 148.809451,23.3657627 C148.842264,23.4750847 148.85539,23.5333898 148.85539,23.5333898 L148.894767,23.5261017 L151.106421,23.2491525 C151.073607,23.4532203 151.034231,23.6427119 150.981729,23.8322034 C150.712655,24.8598305 150.194196,25.6250847 150.194196,25.6250847 C148.868516,27.9791525 146.683112,28.7444068 146.683112,28.7444068 C143.349223,29.9542373 141.66259,27.3888136 141.66259,27.3888136 C141.557586,27.2357627 141.465707,27.0827119 141.386954,26.929661 C140.304096,24.8962712 141.35414,23.2710169 141.35414,23.2710169 L141.35414,23.2710169 Z" id="Fill-2" fill="#FFFFFF"></path>
                        <path d="M86.3036673,15.7137252 C86.6407735,17.8139145 92.4438163,18.4686199 91.0814101,15.4198076 C90.2666072,13.5948746 85.9331611,13.3608291 86.3036673,15.7137252" id="Fill-13-Copy" fill="#F8F9FA" filter="url(#filter-1)"></path>
                    </g>
                    <text id="Desde-1965" sketch:type="MSTextLayer" font-family="Merriweather" font-size="12" font-style="italic" font-weight="bold" fill="#FFFFFF">
                        <tspan x="96" y="47">Desde 1965</tspan>
                    </text>
                </g>
            </g>
        </g>
    </g>
</svg>