<?xml version="1.0" encoding="UTF-8" standalone="no"?>
<svg width="339px" height="303px" viewBox="0 0 339 303" version="1.1" xmlns="http://www.w3.org/2000/svg" xmlns:xlink="http://www.w3.org/1999/xlink" xmlns:sketch="http://www.bohemiancoding.com/sketch/ns">
    <!-- Generator: Sketch 3.3.2 (12043) - http://www.bohemiancoding.com/sketch -->
    <title>Rectangle 94 + Modern Logo</title>
    <desc>Created with Sketch.</desc>
    <defs>
        <filter x="-50%" y="-50%" width="200%" height="200%" filterUnits="objectBoundingBox" id="filter-1">
            <feOffset dx="0" dy="0" in="SourceAlpha" result="shadowOffsetOuter1"></feOffset>
            <feGaussianBlur stdDeviation="10.5" in="shadowOffsetOuter1" result="shadowBlurOuter1"></feGaussianBlur>
            <feColorMatrix values="0 0 0 0 0.888339711   0 0 0 0 0.888339711   0 0 0 0 0.888339711  0 0 0 0.35 0" in="shadowBlurOuter1" type="matrix" result="shadowMatrixOuter1"></feColorMatrix>
            <feMerge>
                <feMergeNode in="shadowMatrixOuter1"></feMergeNode>
                <feMergeNode in="SourceGraphic"></feMergeNode>
            </feMerge>
        </filter>
    </defs>
    <g id="04---Productos" stroke="none" stroke-width="1" fill="none" fill-rule="evenodd" sketch:type="MSPage">
        <g id="Artboard-7" sketch:type="MSArtboardGroup" transform="translate(-31.000000, -49.000000)">
            <g id="Rectangle-94-+-Modern-Logo" sketch:type="MSLayerGroup" transform="translate(31.000000, 45.000000)">
                <rect id="Rectangle-94" fill="#F7F7F7" sketch:type="MSShapeGroup" x="0" y="4" width="339" height="303"></rect>
                <g id="Modern-Logo" transform="translate(40.000000, 0.000000)">
                    <text id="C" sketch:type="MSTextLayer" font-family="Batang" font-size="304.705882" font-weight="normal" fill="#EE552B">
                        <tspan x="0" y="262">C</tspan>
                    </text>
                    <text id="afrilosa" fill="white" filter="url(#filter-1)" sketch:type="MSTextLayer" font-family="Pacifico" font-size="67.7124183" font-weight="normal">
                        <tspan x="47.3986928" y="157.73913" fill="#0085CC">afrilosa</tspan>
                    </text>
                    <text id="CARNES-Y-EMBUTIDOS" sketch:type="MSTextLayer" font-family="Avenir Next" font-size="13.5424837" font-weight="normal" fill="#0085CC">
                        <tspan x="110.03268" y="176.782609">CARNES Y EMBUTIDOS</tspan>
                    </text>
                    <g id="medalla" transform="translate(154.045752, 208.565217)">
                        <polygon id="Star-1" stroke="#EE552B" fill="#FECB2F" sketch:type="MSShapeGroup" points="32.1633987 59.8886963 27.3696929 64.074941 24.0208073 58.6593379 18.208223 61.2442579 16.6017209 55.0804964 10.2867317 55.8344103 10.5653579 49.4701678 4.30907835 48.326087 6.44807552 42.3268542 0.806403557 39.3864353 4.6157125 34.2852705 0.0899353861 29.8097826 5.23108229 26.0599467 2.22333518 20.4470566 8.23950658 18.3817388 7.01704101 12.1301764 13.3736737 11.9328894 14.0451111 5.5981334 20.1773903 7.28640697 22.6830705 1.4313283 28.0461164 4.85515192 32.1633987 0 36.280681 4.85515192 41.6437269 1.4313283 44.1494071 7.28640697 50.2816863 5.5981334 50.9531237 11.9328894 57.3097564 12.1301764 56.0872908 18.3817388 62.1034622 20.4470566 59.0957151 26.0599467 64.236862 29.8097826 59.7110849 34.2852705 63.5203938 39.3864353 57.8787219 42.3268542 60.017719 48.326087 53.7614395 49.4701678 54.0400656 55.8344103 47.7250765 55.0804964 46.1185744 61.2442579 40.3059901 58.6593379 36.9571045 64.074941 "></polygon>
                        <text id="DESDE" sketch:type="MSTextLayer" font-family="Avenir Next" font-size="10.1568627" font-weight="normal" fill="#0085CC">
                            <tspan x="15.2352941" y="32.0434783">DESDE</tspan>
                        </text>
                        <text id="1965" sketch:type="MSTextLayer" font-family="Avenir Next" font-size="10.1568627" font-weight="normal" fill="#0085CC">
                            <tspan x="18.620915" y="42.2173913">1965</tspan>
                        </text>
                    </g>
                </g>
            </g>
        </g>
    </g>
</svg>