<?xml version="1.0" encoding="UTF-8" standalone="no"?>
<svg width="165px" height="141px" viewBox="0 0 165 141" version="1.1" xmlns="http://www.w3.org/2000/svg" xmlns:xlink="http://www.w3.org/1999/xlink" xmlns:sketch="http://www.bohemiancoding.com/sketch/ns">
    <!-- Generator: Sketch 3.3.2 (12043) - http://www.bohemiancoding.com/sketch -->
    <title>Modern Logo</title>
    <desc>Created with Sketch.</desc>
    <defs>
        <filter x="-50%" y="-50%" width="200%" height="200%" filterUnits="objectBoundingBox" id="filter-1">
            <feOffset dx="0" dy="0" in="SourceAlpha" result="shadowOffsetOuter1"></feOffset>
            <feGaussianBlur stdDeviation="10.5" in="shadowOffsetOuter1" result="shadowBlurOuter1"></feGaussianBlur>
            <feColorMatrix values="0 0 0 0 0.888339711   0 0 0 0 0.888339711   0 0 0 0 0.888339711  0 0 0 0.35 0" in="shadowBlurOuter1" type="matrix" result="shadowMatrixOuter1"></feColorMatrix>
            <feMerge>
                <feMergeNode in="shadowMatrixOuter1"></feMergeNode>
                <feMergeNode in="SourceGraphic"></feMergeNode>
            </feMerge>
        </filter>
    </defs>
    <g id="04---Productos" stroke="none" stroke-width="1" fill="none" fill-rule="evenodd" sketch:type="MSPage">
        <g id="04.1--Products---Single-View---Desktop" sketch:type="MSArtboardGroup" transform="translate(-243.000000, -946.000000)">
            <g id="Premium-+-Rectangle-57-+-Jamón-americano" sketch:type="MSLayerGroup" transform="translate(130.000000, 860.000000)">
                <g id="Premium">
                    <g id="Modern-Logo" transform="translate(104.000000, 65.000000)">
                        <text id="C" sketch:type="MSTextLayer" font-family="Batang" font-size="180" font-weight="normal" fill="#EE552B">
                            <tspan x="0" y="155">C</tspan>
                        </text>
                        <text id="afrilosa" fill="white" filter="url(#filter-1)" sketch:type="MSTextLayer" font-family="Pacifico" font-size="40" font-weight="normal">
                            <tspan x="28" y="93" fill="#0085CC">afrilosa</tspan>
                        </text>
                        <text id="CARNES-Y-EMBUTIDOS" sketch:type="MSTextLayer" font-family="Avenir Next" font-size="8" font-weight="normal" fill="#0085CC">
                            <tspan x="65" y="104">CARNES Y EMBUTIDOS</tspan>
                        </text>
                        <g id="medalla" transform="translate(91.000000, 123.000000)">
                            <polygon id="Star-1" stroke="#EE552B" fill="#FECB2F" sketch:type="MSShapeGroup" points="19 35.3189747 16.1681969 37.7877857 14.1898978 34.5939685 10.756209 36.1184085 9.8071942 32.4833697 6.07671798 32.9279856 6.24131178 29.1747143 2.54551733 28.5 3.80909481 24.9619909 0.476369669 23.2278977 2.72665642 20.2195185 0.0531278536 17.5801282 3.09017602 15.3686865 1.31339878 12.0585205 4.86735331 10.8405126 4.14520183 7.15369376 7.90027827 7.03734502 8.2969189 3.30146329 11.9194622 4.2971118 13.3996517 0.84411669 16.567783 2.86329472 19 0 21.432217 2.86329472 24.6003483 0.84411669 26.0805378 4.2971118 29.7030811 3.30146329 30.0997217 7.03734502 33.8547982 7.15369376 33.1326467 10.8405126 36.6866012 12.0585205 34.909824 15.3686865 37.9468721 17.5801282 35.2733436 20.2195185 37.5236303 23.2278977 34.1909052 24.9619909 35.4544827 28.5 31.7586882 29.1747143 31.923282 32.9279856 28.1928058 32.4833697 27.243791 36.1184085 23.8101022 34.5939685 21.8318031 37.7877857 "></polygon>
                            <text id="DESDE" sketch:type="MSTextLayer" font-family="Avenir Next" font-size="6" font-weight="normal" fill="#0085CC">
                                <tspan x="9" y="19">DESDE</tspan>
                            </text>
                            <text id="1965" sketch:type="MSTextLayer" font-family="Avenir Next" font-size="6" font-weight="normal" fill="#0085CC">
                                <tspan x="11" y="25">1965</tspan>
                            </text>
                        </g>
                    </g>
                </g>
            </g>
        </g>
    </g>
</svg>