<?xml version="1.0" encoding="UTF-8" standalone="no"?>
<svg width="345px" height="25px" viewBox="0 0 345 25" version="1.1" xmlns="http://www.w3.org/2000/svg" xmlns:xlink="http://www.w3.org/1999/xlink" xmlns:sketch="http://www.bohemiancoding.com/sketch/ns">
    <!-- Generator: bin/sketchtool 1.4 (305) - http://www.bohemiancoding.com/sketch -->
    <title>Imported Layers Copy</title>
    <desc>Created with bin/sketchtool.</desc>
    <defs></defs>
    <g id="Components" stroke="none" stroke-width="1" fill="none" fill-rule="evenodd" sketch:type="MSPage">
        <g sketch:type="MSArtboardGroup" transform="translate(-430.000000, -2486.000000)" id="Imported-Layers-Copy" fill="#CACACC">
            <g sketch:type="MSLayerGroup" transform="translate(430.000000, 2486.000000)">
                <path d="M157.657362,22.8826 C157.657362,22.8826 152.868338,23.1348 150.553265,19.682 C148.563513,16.7206 150.553265,13.832 151.952901,13.832 C151.952901,13.832 149.81688,12.0094 148.046531,13.5278 C146.054257,15.2386 146.939431,18.3924 146.939431,18.3924 C146.939431,18.3924 140.763382,9.5576 130.728878,11.323 C122.550466,12.7686 123.064927,18.7694 125.203469,19.0008 C126.161778,19.0996 126.746851,18.239 126.603105,17.3264 C126.444227,16.3514 125.644796,16.4918 125.644796,16.4918 C125.644796,16.4918 129.881531,12.6152 138.24656,16.9468 C146.490539,21.216 151.322434,23.946 157.876764,23.7952 C157.876764,23.7952 158.10121,23.1868 157.657362,22.8826" id="Fill-1" sketch:type="MSShapeGroup"></path>
                <path d="M157.833892,23.8004 C157.627099,23.8004 157.422828,23.7952 157.210991,23.777 C156.968892,23.7614 156.784796,23.543 156.802449,23.2934 C156.820102,23.0386 157.036983,22.8514 157.27656,22.8696 C161.402332,23.1816 165.023732,19.9732 165.328878,15.7092 C165.447405,14.0816 164.94051,12.5034 163.906545,11.2684 C162.870058,10.0282 161.432595,9.2846 159.851385,9.165 C158.608105,9.0714 157.412741,9.4796 156.472085,10.3194 C155.531429,11.1514 154.961487,12.3188 154.8707,13.5954 C154.797566,14.5938 155.107755,15.561 155.743265,16.3176 C156.378776,17.0768 157.261429,17.5344 158.227303,17.6098 C158.469402,17.6254 158.653499,17.8438 158.638367,18.096 C158.618192,18.3482 158.401312,18.5354 158.164257,18.5172 C156.958805,18.4288 155.861793,17.8594 155.074971,16.9156 C154.285627,15.9744 153.899781,14.7732 153.988047,13.5278 C154.096487,12.0094 154.772347,10.6236 155.894577,9.6278 C157.014286,8.6294 158.441662,8.1432 159.919475,8.2576 C161.732697,8.3928 163.387041,9.2534 164.57484,10.6704 C165.762638,12.09 166.342668,13.9048 166.211531,15.7742 C165.88621,20.3242 162.191676,23.8004 157.833892,23.8004" id="Fill-2" sketch:type="MSShapeGroup"></path>
                <path d="M159.631983,16.9936 C159.631983,17.8204 158.988907,18.4834 158.189475,18.4834 C157.390044,18.4834 156.741924,17.8204 156.741924,16.9936 C156.741924,16.172 157.390044,15.5038 158.189475,15.5038 C158.988907,15.5038 159.631983,16.172 159.631983,16.9936" id="Fill-3" sketch:type="MSShapeGroup"></path>
                <path d="M124.938673,23.3402 C124.938673,23.3402 120.14965,23.5872 117.832055,20.1396 C115.844825,17.173 117.832055,14.287 119.234213,14.287 C119.234213,14.287 117.095671,12.4644 115.327843,13.9854 C113.335569,15.6962 114.220743,18.8448 114.220743,18.8448 C114.220743,18.8448 108.044694,10.01 98.0127114,11.7806 C89.8292566,13.2262 90.3462391,19.2244 92.4822595,19.4532 C93.4430904,19.5546 94.033207,18.6914 93.881895,17.7814 C93.7280612,16.809 92.923586,16.9468 92.923586,16.9468 C92.923586,16.9468 97.1603207,13.0702 105.527872,17.4018 C113.774373,21.6736 118.603746,24.4036 125.160598,24.2502 C125.160598,24.2502 125.382522,23.6444 124.938673,23.3402" id="Fill-4" sketch:type="MSShapeGroup"></path>
                <path d="M125.117726,24.258 C124.910933,24.258 124.70414,24.2528 124.494825,24.2372 C124.247682,24.219 124.06863,23.998 124.083761,23.7484 C124.101414,23.4962 124.318294,23.309 124.560394,23.3272 C128.681122,23.634 132.305044,20.4282 132.61019,16.1642 C132.726195,14.534 132.224344,12.9584 131.185335,11.7208 C130.153892,10.4858 128.713907,9.7396 127.135219,9.6226 C125.886895,9.5264 124.694052,9.9372 123.750875,10.7744 C122.810219,11.609 122.240277,12.7738 122.152012,14.0504 C122.081399,15.0514 122.389067,16.016 123.022055,16.7726 C123.660087,17.5318 124.540219,17.992 125.508615,18.0648 C125.753236,18.083 125.937332,18.3014 125.914636,18.551 C125.899504,18.8032 125.682624,18.9904 125.443047,18.9748 C124.240117,18.8812 123.143105,18.3144 122.356283,17.3732 C121.566939,16.4268 121.181093,15.2282 121.266837,13.9854 C121.377799,12.4644 122.053659,11.0786 123.175889,10.0802 C124.295598,9.087 125.71793,8.5982 127.198265,8.7126 C129.014009,8.8504 130.668353,9.7058 131.856152,11.1254 C133.041429,12.5476 133.626501,14.3598 133.490321,16.2292 C133.165,20.7818 129.470466,24.258 125.117726,24.258" id="Fill-5" sketch:type="MSShapeGroup"></path>
                <path d="M126.918338,17.4486 C126.918338,18.2728 126.267697,18.941 125.468265,18.941 C124.668834,18.941 124.023236,18.2728 124.023236,17.4486 C124.023236,16.6244 124.668834,15.9614 125.468265,15.9614 C126.267697,15.9614 126.918338,16.6244 126.918338,17.4486" id="Fill-6" sketch:type="MSShapeGroup"></path>
                <path d="M92.4419096,16.5646 L2.46425656,16.5646 C2.09858601,16.5646 1.80100583,16.2604 1.80100583,15.8834 C1.80100583,15.5064 2.09858601,15.1996 2.46425656,15.1996 L92.4419096,15.1996 C92.810102,15.1996 93.1051603,15.5064 93.1051603,15.8834 C93.1051603,16.2604 92.810102,16.5646 92.4419096,16.5646" id="Fill-7" sketch:type="MSShapeGroup"></path>
                <path d="M4.34052478,15.769 C4.34052478,16.8402 3.50074344,17.7034 2.46425656,17.7034 C1.43029155,17.7034 0.590510204,16.8402 0.590510204,15.769 C0.590510204,14.7004 1.43029155,13.8346 2.46425656,13.8346 C3.50074344,13.8346 4.34052478,14.7004 4.34052478,15.769" id="Fill-8" sketch:type="MSShapeGroup"></path>
                <path d="M187.897055,22.8826 C187.897055,22.8826 192.691122,23.1348 195.006195,19.682 C196.995948,16.7206 195.006195,13.832 193.60656,13.832 C193.60656,13.832 195.745102,12.0094 197.51293,13.5278 C199.502682,15.2386 198.614985,18.3924 198.614985,18.3924 C198.614985,18.3924 204.796079,9.5576 214.828061,11.323 C223.008994,12.7686 222.494534,18.7694 220.355991,19.0008 C219.397682,19.0996 218.807566,18.239 218.958878,17.3264 C219.112711,16.3514 219.914665,16.4918 219.914665,16.4918 C219.914665,16.4918 215.67793,12.6152 207.310379,16.9468 C199.066399,21.216 194.237026,23.946 187.677653,23.7952 C187.677653,23.7952 187.455729,23.1868 187.897055,22.8826" id="Fill-9" sketch:type="MSShapeGroup"></path>
                <path d="M187.723047,23.8004 C183.367784,23.8004 179.670729,20.3242 179.34793,15.7742 C179.214271,13.9048 179.791778,12.09 180.982099,10.6704 C182.17242,9.2534 183.826764,8.3928 185.639985,8.2576 C187.115277,8.1406 188.545175,8.6294 189.662362,9.6278 C190.784592,10.6236 191.460452,12.0094 191.571414,13.5278 C191.659679,14.7732 191.271312,15.9744 190.48449,16.9156 C189.695146,17.8594 188.600656,18.4288 187.395204,18.5172 C187.153105,18.5354 186.938746,18.3482 186.921093,18.096 C186.90344,17.8438 187.087536,17.6254 187.329636,17.6098 C188.298032,17.5344 189.180685,17.0768 189.816195,16.3176 C190.449184,15.561 190.759373,14.5938 190.688761,13.5954 C190.597974,12.3188 190.028032,11.1514 189.089898,10.3194 C188.14672,9.4796 186.948834,9.0714 185.703032,9.165 C184.126866,9.2846 182.684359,10.0282 181.652915,11.2684 C180.616429,12.5034 180.112055,14.0816 180.230583,15.7092 C180.533207,19.9732 184.154606,23.179 188.280379,22.8696 C188.512391,22.8514 188.736837,23.0386 188.75449,23.2934 C188.772143,23.543 188.59309,23.7614 188.345948,23.777 C188.139155,23.7952 187.92984,23.8004 187.723047,23.8004" id="Fill-10" sketch:type="MSShapeGroup"></path>
                <path d="M185.922434,16.9936 C185.922434,17.8204 186.570554,18.4834 187.369985,18.4834 C188.169417,18.4834 188.817536,17.8204 188.817536,16.9936 C188.817536,16.172 188.169417,15.5038 187.369985,15.5038 C186.570554,15.5038 185.922434,16.172 185.922434,16.9936" id="Fill-11" sketch:type="MSShapeGroup"></path>
                <path d="M220.620787,23.3402 C220.620787,23.3402 225.40981,23.5872 227.722362,20.1396 C229.712114,17.173 227.724883,14.287 226.325248,14.287 C226.325248,14.287 228.461268,12.4644 230.231618,13.9854 C232.218848,15.6962 231.338717,18.8448 231.338717,18.8448 C231.338717,18.8448 237.514767,10.01 247.549271,11.7806 C255.727682,13.2262 255.213222,19.2244 253.074679,19.4532 C252.113848,19.5546 251.531297,18.6914 251.675044,17.7814 C251.831399,16.809 252.633353,16.9468 252.633353,16.9468 C252.633353,16.9468 248.396618,13.0702 240.031589,17.4018 C231.787609,21.6736 226.955714,24.4036 220.396341,24.2502 C220.396341,24.2502 220.174417,23.6444 220.620787,23.3402" id="Fill-12" sketch:type="MSShapeGroup"></path>
                <path d="M220.444257,24.258 C216.086472,24.258 212.391939,20.7818 212.066618,16.2292 C211.932959,14.3598 212.512988,12.5476 213.703309,11.1254 C214.891108,9.7058 216.545452,8.8504 218.358673,8.7126 C219.828921,8.5982 221.263863,9.087 222.383571,10.0802 C223.50328,11.0786 224.17914,12.4644 224.290102,13.9854 C224.375845,15.2282 223.992522,16.4268 223.203178,17.3732 C222.416356,18.3144 221.319344,18.8812 220.113892,18.9748 C219.869271,18.9904 219.659956,18.8032 219.642303,18.551 C219.622128,18.3014 219.806224,18.083 220.048324,18.0648 C221.01672,17.992 221.899373,17.5318 222.532362,16.7726 C223.170394,16.016 223.480583,15.0514 223.407449,14.0504 C223.316662,12.7738 222.74672,11.609 221.806064,10.7744 C220.865408,9.9372 219.670044,9.5264 218.426764,9.6226 C216.845554,9.7396 215.40809,10.4858 214.371603,11.7208 C213.337638,12.9584 212.830743,14.534 212.949271,16.1642 C213.254417,20.4282 216.868251,23.634 220.999067,23.3272 C221.243688,23.309 221.455525,23.4962 221.4757,23.7484 C221.490831,23.998 221.306735,24.219 221.067157,24.2372 C220.857843,24.2528 220.65105,24.258 220.444257,24.258" id="Fill-13" sketch:type="MSShapeGroup"></path>
                <path d="M218.643644,17.4486 C218.643644,18.2728 219.289242,18.941 220.088673,18.941 C220.888105,18.941 221.533703,18.2728 221.533703,17.4486 C221.533703,16.6244 220.888105,15.9614 220.088673,15.9614 C219.289242,15.9614 218.643644,16.6244 218.643644,17.4486" id="Fill-14" sketch:type="MSShapeGroup"></path>
                <path d="M342.759796,16.5646 L252.782143,16.5646 C252.411429,16.5646 252.11637,16.2604 252.11637,15.8834 C252.11637,15.5064 252.411429,15.1996 252.782143,15.1996 L342.759796,15.1996 C343.125466,15.1996 343.418003,15.5064 343.418003,15.8834 C343.418003,16.2604 343.125466,16.5646 342.759796,16.5646" id="Fill-15" sketch:type="MSShapeGroup"></path>
                <path d="M340.883528,15.769 C340.883528,16.8402 341.720787,17.7034 342.759796,17.7034 C343.793761,17.7034 344.636064,16.8402 344.636064,15.769 C344.636064,14.7004 343.793761,13.8346 342.759796,13.8346 C341.720787,13.8346 340.883528,14.7004 340.883528,15.769" id="Fill-16" sketch:type="MSShapeGroup"></path>
                <path d="M186.883265,17.9348 L159.026735,17.9348 C158.540015,17.9348 158.139038,17.524 158.139038,17.0222 C158.139038,16.5178 158.540015,16.1122 159.026735,16.1122 L186.883265,16.1122 C187.369985,16.1122 187.76844,16.5178 187.76844,17.0222 C187.76844,17.524 187.369985,17.9348 186.883265,17.9348" id="Fill-17" sketch:type="MSShapeGroup"></path>
                <path d="M172.947434,0.0104 C170.516356,2.1736 170.960204,3.9962 170.960204,3.9962 C170.627318,2.6286 169.522741,2.6286 169.522741,2.6286 C168.748528,5.1402 168.592172,6.851 170.332259,8.5566 C171.880685,10.075 171.953819,10.7588 171.512493,11.5206 C170.96777,12.4514 169.26551,12.2382 166.978178,6.0476 C165.573499,2.2334 163.929242,2.4336 162.224461,3.5048 C160.345671,4.6826 159.684942,3.315 159.684942,3.315 C159.500845,5.707 161.636866,5.6706 161.563732,6.617 C161.477988,7.6986 159.611808,6.201 158.908207,5.3612 C157.622055,3.8298 156.255204,4.5682 155.264111,5.8188 C154.15449,7.215 153.493761,6.617 153.493761,6.617 C154.043528,8.0652 155.372551,8.099 155.372551,8.099 C151.872201,8.8972 152.719548,13 152.719548,13 C157.213513,3.809 163.402172,8.2862 167.311064,11.6688 C170.692886,14.599 172.435496,14.5808 172.851603,14.5652 L172.947434,14.5652 C173.424067,14.56 174.997711,14.7784 178.588848,11.6688 C182.492697,8.2862 188.683878,3.809 193.177843,13 C193.177843,13 194.02519,8.8972 190.527362,8.099 C190.527362,8.099 191.853863,8.0652 192.40363,6.617 C192.40363,6.617 191.745423,7.215 190.635802,5.8188 C189.642187,4.5682 188.275335,3.8298 186.989184,5.3612 C186.288105,6.201 184.41688,7.6986 184.336181,6.617 C184.260525,5.6706 186.399067,5.707 186.212449,3.315 C186.212449,3.315 185.55172,4.6826 183.67293,3.5048 C181.970671,2.4336 180.323892,2.2334 178.919213,6.0476 C176.634402,12.2382 174.929621,12.4514 174.38742,11.5206 C173.946093,10.7588 174.016706,10.075 175.565131,8.5566 C177.302697,6.851 177.148863,5.1402 176.377172,2.6286 C176.377172,2.6286 175.270073,2.6286 174.939708,3.9962 C174.939708,3.9962 175.383557,2.1736 172.947434,0.0104" id="Fill-18" sketch:type="MSShapeGroup"></path>
            </g>
        </g>
    </g>
</svg>